<svg width="726" height="32" viewBox="0 0 726 32" fill="none" xmlns="http://www.w3.org/2000/svg">
<g id="Frame 305">
<g id="Button">
<g id="Auto layout button" filter="url(#filter0_d_459_9450)">
<rect x="1" y="1" width="122" height="30" rx="4" fill="white"/>
<rect x="1.5" y="1.5" width="121" height="29" rx="3.5" stroke="url(#paint0_linear_459_9450)"/>
<g id="Auto layout content" clip-path="url(#clip0_459_9450)">
<g id="calendar_minor">
<path id="Primary fill" fill-rule="evenodd" clip-rule="evenodd" d="M29.5 10C30.3284 10 31 10.6716 31 11.5V22.5C31 23.3284 30.3284 24 29.5 24H16.5C15.6716 24 15 23.3284 15 22.5V11.5C15 10.6716 15.6716 10 16.5 10H18V9C18 8.448 18.447 8 19 8C19.553 8 20 8.448 20 9V10H26V9C26 8.448 26.447 8 27 8C27.553 8 28 8.448 28 9V10H29.5ZM29 14H17V22H29V14Z" fill="#5C5F62"/>
</g>
<path id="Label" d="M39.7412 19.6191H44.2598V21H38.0117V11.0469H39.7412V19.6191ZM49.8447 21C49.7718 20.8587 49.708 20.6286 49.6533 20.3096C49.1247 20.861 48.4775 21.1367 47.7119 21.1367C46.9691 21.1367 46.363 20.9248 45.8936 20.501C45.4242 20.0771 45.1895 19.5531 45.1895 18.9287C45.1895 18.1403 45.4811 17.5365 46.0645 17.1172C46.6523 16.6934 47.4909 16.4814 48.5801 16.4814H49.5986V15.9961C49.5986 15.6133 49.4915 15.3079 49.2773 15.0801C49.0632 14.8477 48.7373 14.7314 48.2998 14.7314C47.9215 14.7314 47.6117 14.8271 47.3701 15.0186C47.1286 15.2054 47.0078 15.4447 47.0078 15.7363H45.3467C45.3467 15.3307 45.4811 14.9525 45.75 14.6016C46.0189 14.2461 46.3835 13.9681 46.8438 13.7676C47.3086 13.5671 47.8258 13.4668 48.3955 13.4668C49.2614 13.4668 49.9518 13.6855 50.4668 14.123C50.9818 14.556 51.2461 15.1667 51.2598 15.9551V19.291C51.2598 19.9564 51.3532 20.4873 51.54 20.8838V21H49.8447ZM48.0195 19.8037C48.3477 19.8037 48.6553 19.724 48.9424 19.5645C49.234 19.4049 49.4528 19.1908 49.5986 18.9219V17.5273H48.7031C48.0879 17.5273 47.6253 17.6344 47.3154 17.8486C47.0055 18.0628 46.8506 18.3659 46.8506 18.7578C46.8506 19.0768 46.9554 19.332 47.165 19.5234C47.3792 19.7103 47.6641 19.8037 48.0195 19.8037ZM57.1455 18.9902C57.1455 18.694 57.0225 18.4684 56.7764 18.3135C56.5348 18.1585 56.1315 18.0218 55.5664 17.9033C55.0013 17.7848 54.5296 17.6344 54.1514 17.4521C53.3219 17.0511 52.9072 16.4701 52.9072 15.709C52.9072 15.071 53.1761 14.5378 53.7139 14.1094C54.2516 13.681 54.9352 13.4668 55.7646 13.4668C56.6488 13.4668 57.362 13.6855 57.9043 14.123C58.4512 14.5605 58.7246 15.1279 58.7246 15.8252H57.0635C57.0635 15.5062 56.945 15.2419 56.708 15.0322C56.471 14.818 56.1566 14.7109 55.7646 14.7109C55.4001 14.7109 55.1016 14.7952 54.8691 14.9639C54.6413 15.1325 54.5273 15.3581 54.5273 15.6406C54.5273 15.8958 54.6344 16.0941 54.8486 16.2354C55.0628 16.3766 55.4958 16.5202 56.1475 16.666C56.7992 16.8073 57.3096 16.9782 57.6787 17.1787C58.0524 17.3747 58.3281 17.6117 58.5059 17.8896C58.6882 18.1676 58.7793 18.5049 58.7793 18.9014C58.7793 19.5667 58.5036 20.1068 57.9521 20.5215C57.4007 20.9316 56.6784 21.1367 55.7852 21.1367C55.179 21.1367 54.639 21.0273 54.165 20.8086C53.6911 20.5898 53.3219 20.2891 53.0576 19.9062C52.7933 19.5234 52.6611 19.111 52.6611 18.6689H54.2744C54.2972 19.0609 54.4453 19.3639 54.7188 19.5781C54.9922 19.7878 55.3545 19.8926 55.8057 19.8926C56.2432 19.8926 56.5758 19.8105 56.8037 19.6465C57.0316 19.4779 57.1455 19.2591 57.1455 18.9902ZM62.3135 11.8057V13.6035H63.6191V14.834H62.3135V18.9629C62.3135 19.2454 62.3682 19.4505 62.4775 19.5781C62.5915 19.7012 62.792 19.7627 63.0791 19.7627C63.2705 19.7627 63.4642 19.7399 63.6602 19.6943V20.9795C63.2819 21.0843 62.9173 21.1367 62.5664 21.1367C61.2904 21.1367 60.6523 20.4326 60.6523 19.0244V14.834H59.4355V13.6035H60.6523V11.8057H62.3135ZM74.8984 11.9697L70.9199 21H69.1768L73.1484 12.3799H68.001V11.0469H74.8984V11.9697ZM79.5127 17.2471C79.5127 16.1077 79.777 15.194 80.3057 14.5059C80.8343 13.8132 81.543 13.4668 82.4316 13.4668C83.2155 13.4668 83.849 13.7402 84.332 14.2871V10.5H85.9932V21H84.4893L84.4072 20.2344C83.9105 20.8359 83.2474 21.1367 82.418 21.1367C81.5521 21.1367 80.8503 20.7881 80.3125 20.0908C79.7793 19.3936 79.5127 18.4456 79.5127 17.2471ZM81.1738 17.3906C81.1738 18.1426 81.3174 18.7305 81.6045 19.1543C81.8962 19.5736 82.3086 19.7832 82.8418 19.7832C83.5208 19.7832 84.0176 19.4801 84.332 18.874V15.7158C84.0267 15.1234 83.5345 14.8271 82.8555 14.8271C82.3177 14.8271 81.903 15.0413 81.6113 15.4697C81.3197 15.8936 81.1738 16.5339 81.1738 17.3906ZM92.1455 21C92.0726 20.8587 92.0088 20.6286 91.9541 20.3096C91.4255 20.861 90.7783 21.1367 90.0127 21.1367C89.2699 21.1367 88.6637 20.9248 88.1943 20.501C87.7249 20.0771 87.4902 19.5531 87.4902 18.9287C87.4902 18.1403 87.7819 17.5365 88.3652 17.1172C88.9531 16.6934 89.7917 16.4814 90.8809 16.4814H91.8994V15.9961C91.8994 15.6133 91.7923 15.3079 91.5781 15.0801C91.3639 14.8477 91.0381 14.7314 90.6006 14.7314C90.2223 14.7314 89.9124 14.8271 89.6709 15.0186C89.4294 15.2054 89.3086 15.4447 89.3086 15.7363H87.6475C87.6475 15.3307 87.7819 14.9525 88.0508 14.6016C88.3197 14.2461 88.6842 13.9681 89.1445 13.7676C89.6094 13.5671 90.1266 13.4668 90.6963 13.4668C91.5622 13.4668 92.2526 13.6855 92.7676 14.123C93.2826 14.556 93.5469 15.1667 93.5605 15.9551V19.291C93.5605 19.9564 93.654 20.4873 93.8408 20.8838V21H92.1455ZM90.3203 19.8037C90.6484 19.8037 90.9561 19.724 91.2432 19.5645C91.5348 19.4049 91.7536 19.1908 91.8994 18.9219V17.5273H91.0039C90.3887 17.5273 89.9261 17.6344 89.6162 17.8486C89.3063 18.0628 89.1514 18.3659 89.1514 18.7578C89.1514 19.0768 89.2562 19.332 89.4658 19.5234C89.68 19.7103 89.9648 19.8037 90.3203 19.8037ZM97.7783 18.6211L99.2822 13.6035H101.053L98.1133 22.1211C97.6621 23.3652 96.8965 23.9873 95.8164 23.9873C95.5749 23.9873 95.3083 23.9463 95.0166 23.8643V22.5791L95.3311 22.5996C95.7503 22.5996 96.0648 22.5221 96.2744 22.3672C96.4886 22.2168 96.6572 21.9616 96.7803 21.6016L97.0195 20.9658L94.4219 13.6035H96.2129L97.7783 18.6211ZM106.159 18.9902C106.159 18.694 106.036 18.4684 105.79 18.3135C105.549 18.1585 105.145 18.0218 104.58 17.9033C104.015 17.7848 103.543 17.6344 103.165 17.4521C102.336 17.0511 101.921 16.4701 101.921 15.709C101.921 15.071 102.19 14.5378 102.728 14.1094C103.265 13.681 103.949 13.4668 104.778 13.4668C105.662 13.4668 106.376 13.6855 106.918 14.123C107.465 14.5605 107.738 15.1279 107.738 15.8252H106.077C106.077 15.5062 105.959 15.2419 105.722 15.0322C105.485 14.818 105.17 14.7109 104.778 14.7109C104.414 14.7109 104.115 14.7952 103.883 14.9639C103.655 15.1325 103.541 15.3581 103.541 15.6406C103.541 15.8958 103.648 16.0941 103.862 16.2354C104.076 16.3766 104.509 16.5202 105.161 16.666C105.813 16.8073 106.323 16.9782 106.692 17.1787C107.066 17.3747 107.342 17.6117 107.52 17.8896C107.702 18.1676 107.793 18.5049 107.793 18.9014C107.793 19.5667 107.517 20.1068 106.966 20.5215C106.414 20.9316 105.692 21.1367 104.799 21.1367C104.193 21.1367 103.653 21.0273 103.179 20.8086C102.705 20.5898 102.336 20.2891 102.071 19.9062C101.807 19.5234 101.675 19.111 101.675 18.6689H103.288C103.311 19.0609 103.459 19.3639 103.732 19.5781C104.006 19.7878 104.368 19.8926 104.819 19.8926C105.257 19.8926 105.59 19.8105 105.817 19.6465C106.045 19.4779 106.159 19.2591 106.159 18.9902Z" fill="#202223"/>
</g>
</g>
</g>
<path id="compared to Dec 21&#226;&#128;&#147;Dec 27, 2021" d="M132.498 8.97656C132.498 9.91797 132.758 10.6875 133.277 11.2852C133.797 11.8789 134.514 12.1758 135.428 12.1758C136.271 12.1758 136.912 11.9531 137.35 11.5078C137.787 11.0586 138.006 10.5566 138.006 10.002V9.97266H136.928V10.002C136.928 10.334 136.809 10.627 136.57 10.8809C136.332 11.1348 135.951 11.2617 135.428 11.2617C134.814 11.2617 134.361 11.041 134.068 10.5996C133.779 10.1582 133.635 9.61719 133.635 8.97656V8.78906C133.635 8.14844 133.779 7.60742 134.068 7.16602C134.361 6.72461 134.814 6.50391 135.428 6.50391C135.951 6.50391 136.332 6.63086 136.57 6.88477C136.809 7.13867 136.928 7.42969 136.928 7.75781V7.78711H138.006V7.75781C138.006 7.20703 137.787 6.70898 137.35 6.26367C136.912 5.81445 136.271 5.58984 135.428 5.58984C134.514 5.58984 133.797 5.88867 133.277 6.48633C132.758 7.08008 132.498 7.84766 132.498 8.78906V8.97656ZM138.92 8.97656C138.92 9.91797 139.191 10.6875 139.734 11.2852C140.277 11.8789 141.002 12.1758 141.908 12.1758C142.814 12.1758 143.539 11.8789 144.082 11.2852C144.625 10.6875 144.896 9.91797 144.896 8.97656V8.78906C144.896 7.84766 144.625 7.08008 144.082 6.48633C143.539 5.88867 142.814 5.58984 141.908 5.58984C141.002 5.58984 140.277 5.88867 139.734 6.48633C139.191 7.08008 138.92 7.84766 138.92 8.78906V8.97656ZM140.057 8.78906C140.057 8.14844 140.211 7.60742 140.52 7.16602C140.832 6.72461 141.295 6.50391 141.908 6.50391C142.521 6.50391 142.982 6.72461 143.291 7.16602C143.6 7.60742 143.754 8.14844 143.754 8.78906V8.97656C143.754 9.61328 143.6 10.1523 143.291 10.5938C142.982 11.0352 142.521 11.2559 141.908 11.2559C141.295 11.2559 140.832 11.0352 140.52 10.5938C140.211 10.1523 140.057 9.61328 140.057 8.97656V8.78906ZM146.262 12H147.375V7.61133C147.531 7.31055 147.738 7.06445 147.996 6.87305C148.258 6.68164 148.562 6.58594 148.91 6.58594C149.309 6.58594 149.617 6.69531 149.836 6.91406C150.055 7.13281 150.164 7.49414 150.164 7.99805V12H151.283V7.61133C151.436 7.31055 151.641 7.06445 151.898 6.87305C152.16 6.68164 152.465 6.58594 152.812 6.58594C153.215 6.58594 153.525 6.69531 153.744 6.91406C153.963 7.13281 154.072 7.49414 154.072 7.99805V12H155.186V8.00977C155.186 7.1582 155 6.55273 154.629 6.19336C154.258 5.83008 153.744 5.64844 153.088 5.64844C152.67 5.64844 152.297 5.73242 151.969 5.90039C151.645 6.06445 151.35 6.33203 151.084 6.70312H151.049C150.889 6.33203 150.654 6.06445 150.346 5.90039C150.037 5.73242 149.67 5.64844 149.244 5.64844C148.85 5.64844 148.492 5.73047 148.172 5.89453C147.852 6.05859 147.578 6.28516 147.352 6.57422H147.316L147.27 5.76562H146.262V12ZM156.867 14.4375H157.98V11.2617C158.168 11.5195 158.418 11.7266 158.73 11.8828C159.043 12.0391 159.422 12.1172 159.867 12.1172C160.668 12.1172 161.309 11.8203 161.789 11.2266C162.27 10.6328 162.51 9.88281 162.51 8.97656V8.78906C162.51 7.87891 162.27 7.12891 161.789 6.53906C161.309 5.94531 160.668 5.64844 159.867 5.64844C159.422 5.64844 159.031 5.74023 158.695 5.92383C158.363 6.10352 158.117 6.32031 157.957 6.57422H157.922L157.875 5.76562H156.867V14.4375ZM157.98 10.1367V7.62891C158.105 7.35156 158.309 7.10547 158.59 6.89062C158.875 6.67188 159.219 6.5625 159.621 6.5625C160.227 6.5625 160.67 6.77734 160.951 7.20703C161.232 7.63281 161.373 8.16016 161.373 8.78906V8.97656C161.373 9.60156 161.232 10.1289 160.951 10.5586C160.67 10.9844 160.227 11.1973 159.621 11.1973C159.219 11.1973 158.875 11.0898 158.59 10.875C158.309 10.6562 158.105 10.4102 157.98 10.1367ZM163.535 10.166C163.535 10.7949 163.746 11.2773 164.168 11.6133C164.59 11.9492 165.1 12.1172 165.697 12.1172C166.225 12.1172 166.654 12.0195 166.986 11.8242C167.322 11.625 167.564 11.3965 167.713 11.1387C167.725 11.2949 167.752 11.4531 167.795 11.6133C167.842 11.7734 167.895 11.9023 167.953 12H169.031V11.9062C168.957 11.7344 168.9 11.5371 168.861 11.3145C168.822 11.0879 168.803 10.8477 168.803 10.5938V7.71094C168.803 7.00781 168.592 6.47852 168.17 6.12305C167.752 5.76758 167.16 5.58984 166.395 5.58984C165.633 5.58984 165.027 5.77539 164.578 6.14648C164.129 6.51758 163.904 6.95117 163.904 7.44727V7.47656H165.012V7.44727C165.012 7.18945 165.115 6.96289 165.322 6.76758C165.533 6.57227 165.881 6.47461 166.365 6.47461C166.85 6.47461 167.191 6.58984 167.391 6.82031C167.59 7.04688 167.689 7.34375 167.689 7.71094V8.15625H166.248C165.459 8.15625 164.809 8.33398 164.297 8.68945C163.789 9.04102 163.535 9.5332 163.535 10.166ZM164.648 10.1074C164.648 9.75195 164.793 9.4707 165.082 9.26367C165.375 9.05664 165.803 8.95312 166.365 8.95312H167.689V9.83789C167.689 10.1699 167.51 10.4844 167.15 10.7812C166.791 11.0781 166.389 11.2266 165.943 11.2266C165.502 11.2266 165.176 11.1289 164.965 10.9336C164.754 10.7344 164.648 10.459 164.648 10.1074ZM170.52 12H171.633V7.63477C171.754 7.36133 171.941 7.13086 172.195 6.94336C172.449 6.75586 172.758 6.66211 173.121 6.66211C173.227 6.66211 173.322 6.66602 173.408 6.67383C173.498 6.68164 173.582 6.69336 173.66 6.70898V5.67188C173.621 5.65625 173.553 5.63867 173.455 5.61914C173.361 5.59961 173.271 5.58984 173.186 5.58984C172.822 5.58984 172.508 5.6875 172.242 5.88281C171.98 6.07812 171.77 6.30664 171.609 6.56836H171.574L171.527 5.76562H170.52V12ZM174.217 8.97656C174.217 9.91797 174.479 10.6875 175.002 11.2852C175.525 11.8789 176.279 12.1758 177.264 12.1758C177.865 12.1758 178.375 12.0488 178.793 11.7949C179.215 11.541 179.525 11.2676 179.725 10.9746L179.004 10.3945C178.824 10.6289 178.59 10.832 178.301 11.0039C178.012 11.1758 177.666 11.2617 177.264 11.2617C176.611 11.2617 176.129 11.041 175.816 10.5996C175.508 10.1582 175.354 9.61719 175.354 8.97656V8.78906C175.354 8.14844 175.5 7.60742 175.793 7.16602C176.09 6.72461 176.529 6.50391 177.111 6.50391C177.631 6.50391 178.018 6.66406 178.271 6.98438C178.525 7.30469 178.652 7.69922 178.652 8.16797V8.25586H174.902V9.14062H179.777V8.68359C179.777 7.73438 179.543 6.98242 179.074 6.42773C178.609 5.86914 177.945 5.58984 177.082 5.58984C176.219 5.58984 175.525 5.88867 175.002 6.48633C174.479 7.08008 174.217 7.84766 174.217 8.78906V8.97656ZM180.744 8.97656C180.744 9.88281 180.984 10.6328 181.465 11.2266C181.945 11.8203 182.588 12.1172 183.393 12.1172C183.834 12.1172 184.221 12.0273 184.553 11.8477C184.889 11.6641 185.137 11.4434 185.297 11.1855H185.332L185.379 12H186.387V3H185.273V6.49805C185.09 6.24023 184.84 6.03516 184.523 5.88281C184.211 5.72656 183.834 5.64844 183.393 5.64844C182.588 5.64844 181.945 5.94531 181.465 6.53906C180.984 7.12891 180.744 7.87891 180.744 8.78906V8.97656ZM181.881 8.97656V8.78906C181.881 8.16016 182.021 7.63281 182.303 7.20703C182.588 6.77734 183.031 6.5625 183.633 6.5625C184.039 6.5625 184.383 6.67188 184.664 6.89062C184.945 7.10547 185.148 7.35156 185.273 7.62891V10.1367C185.148 10.4102 184.945 10.6562 184.664 10.875C184.383 11.0898 184.039 11.1973 183.633 11.1973C183.031 11.1973 182.588 10.9844 182.303 10.5586C182.021 10.1289 181.881 9.60156 181.881 8.97656ZM190.184 6.62109H193.793V5.76562H190.184V6.62109ZM191.314 10.4531C191.314 11.0469 191.451 11.4824 191.725 11.7598C191.998 12.0371 192.365 12.1758 192.826 12.1758C193.025 12.1758 193.207 12.1582 193.371 12.123C193.539 12.0879 193.676 12.0469 193.781 12V11.0859C193.668 11.125 193.557 11.1562 193.447 11.1797C193.342 11.2031 193.234 11.2148 193.125 11.2148C192.883 11.2148 192.705 11.1562 192.592 11.0391C192.482 10.9219 192.428 10.7266 192.428 10.4531V4.3125H191.314V6.10547V6.28125V10.4531ZM194.467 8.97656C194.467 9.91797 194.738 10.6875 195.281 11.2852C195.824 11.8789 196.549 12.1758 197.455 12.1758C198.361 12.1758 199.086 11.8789 199.629 11.2852C200.172 10.6875 200.443 9.91797 200.443 8.97656V8.78906C200.443 7.84766 200.172 7.08008 199.629 6.48633C199.086 5.88867 198.361 5.58984 197.455 5.58984C196.549 5.58984 195.824 5.88867 195.281 6.48633C194.738 7.08008 194.467 7.84766 194.467 8.78906V8.97656ZM195.604 8.78906C195.604 8.14844 195.758 7.60742 196.066 7.16602C196.379 6.72461 196.842 6.50391 197.455 6.50391C198.068 6.50391 198.529 6.72461 198.838 7.16602C199.146 7.60742 199.301 8.14844 199.301 8.78906V8.97656C199.301 9.61328 199.146 10.1523 198.838 10.5938C198.529 11.0352 198.068 11.2559 197.455 11.2559C196.842 11.2559 196.379 11.0352 196.066 10.5938C195.758 10.1523 195.604 9.61328 195.604 8.97656V8.78906ZM204.867 12H207.457C208.574 12 209.504 11.6387 210.246 10.916C210.988 10.1895 211.359 9.21484 211.359 7.99219V7.47656C211.359 6.25391 210.988 5.28125 210.246 4.55859C209.504 3.83203 208.574 3.46875 207.457 3.46875H204.867V12ZM206.016 11.0508V4.41797H207.457C208.293 4.41797 208.959 4.68945 209.455 5.23242C209.951 5.77148 210.199 6.51953 210.199 7.47656V7.99219C210.199 8.94922 209.951 9.69922 209.455 10.2422C208.959 10.7812 208.293 11.0508 207.457 11.0508H206.016ZM212.537 8.97656C212.537 9.91797 212.799 10.6875 213.322 11.2852C213.846 11.8789 214.6 12.1758 215.584 12.1758C216.186 12.1758 216.695 12.0488 217.113 11.7949C217.535 11.541 217.846 11.2676 218.045 10.9746L217.324 10.3945C217.145 10.6289 216.91 10.832 216.621 11.0039C216.332 11.1758 215.986 11.2617 215.584 11.2617C214.932 11.2617 214.449 11.041 214.137 10.5996C213.828 10.1582 213.674 9.61719 213.674 8.97656V8.78906C213.674 8.14844 213.82 7.60742 214.113 7.16602C214.41 6.72461 214.85 6.50391 215.432 6.50391C215.951 6.50391 216.338 6.66406 216.592 6.98438C216.846 7.30469 216.973 7.69922 216.973 8.16797V8.25586H213.223V9.14062H218.098V8.68359C218.098 7.73438 217.863 6.98242 217.395 6.42773C216.93 5.86914 216.266 5.58984 215.402 5.58984C214.539 5.58984 213.846 5.88867 213.322 6.48633C212.799 7.08008 212.537 7.84766 212.537 8.78906V8.97656ZM219.064 8.97656C219.064 9.91797 219.324 10.6875 219.844 11.2852C220.363 11.8789 221.08 12.1758 221.994 12.1758C222.838 12.1758 223.479 11.9531 223.916 11.5078C224.354 11.0586 224.572 10.5566 224.572 10.002V9.97266H223.494V10.002C223.494 10.334 223.375 10.627 223.137 10.8809C222.898 11.1348 222.518 11.2617 221.994 11.2617C221.381 11.2617 220.928 11.041 220.635 10.5996C220.346 10.1582 220.201 9.61719 220.201 8.97656V8.78906C220.201 8.14844 220.346 7.60742 220.635 7.16602C220.928 6.72461 221.381 6.50391 221.994 6.50391C222.518 6.50391 222.898 6.63086 223.137 6.88477C223.375 7.13867 223.494 7.42969 223.494 7.75781V7.78711H224.572V7.75781C224.572 7.20703 224.354 6.70898 223.916 6.26367C223.479 5.81445 222.838 5.58984 221.994 5.58984C221.08 5.58984 220.363 5.88867 219.844 6.48633C219.324 7.08008 219.064 7.84766 219.064 8.78906V8.97656ZM228.539 12H234.287V11.0156H229.98L232.412 8.51953C232.873 8.05078 233.262 7.5918 233.578 7.14258C233.895 6.68945 234.053 6.18359 234.053 5.625C234.053 5 233.807 4.45508 233.314 3.99023C232.826 3.52539 232.182 3.29297 231.381 3.29297C230.572 3.29297 229.895 3.54492 229.348 4.04883C228.805 4.55273 228.533 5.19531 228.533 5.97656V6.03516H229.676V5.97656C229.676 5.4375 229.84 5.01562 230.168 4.71094C230.496 4.40234 230.9 4.24805 231.381 4.24805C231.861 4.24805 232.236 4.39062 232.506 4.67578C232.775 4.96094 232.91 5.29688 232.91 5.68359C232.91 6.07031 232.803 6.42969 232.588 6.76172C232.377 7.08984 232.068 7.46289 231.662 7.88086L228.539 11.1445V12ZM237.955 12H239.104V3.35156H238.898L235.752 4.52344V5.63672L237.955 4.72852V12ZM241.605 8.87109H247.799V7.85742H241.605V8.87109ZM248.801 12H251.391C252.508 12 253.438 11.6387 254.18 10.916C254.922 10.1895 255.293 9.21484 255.293 7.99219V7.47656C255.293 6.25391 254.922 5.28125 254.18 4.55859C253.438 3.83203 252.508 3.46875 251.391 3.46875H248.801V12ZM249.949 11.0508V4.41797H251.391C252.227 4.41797 252.893 4.68945 253.389 5.23242C253.885 5.77148 254.133 6.51953 254.133 7.47656V7.99219C254.133 8.94922 253.885 9.69922 253.389 10.2422C252.893 10.7812 252.227 11.0508 251.391 11.0508H249.949ZM256.471 8.97656C256.471 9.91797 256.732 10.6875 257.256 11.2852C257.779 11.8789 258.533 12.1758 259.518 12.1758C260.119 12.1758 260.629 12.0488 261.047 11.7949C261.469 11.541 261.779 11.2676 261.979 10.9746L261.258 10.3945C261.078 10.6289 260.844 10.832 260.555 11.0039C260.266 11.1758 259.92 11.2617 259.518 11.2617C258.865 11.2617 258.383 11.041 258.07 10.5996C257.762 10.1582 257.607 9.61719 257.607 8.97656V8.78906C257.607 8.14844 257.754 7.60742 258.047 7.16602C258.344 6.72461 258.783 6.50391 259.365 6.50391C259.885 6.50391 260.271 6.66406 260.525 6.98438C260.779 7.30469 260.906 7.69922 260.906 8.16797V8.25586H257.156V9.14062H262.031V8.68359C262.031 7.73438 261.797 6.98242 261.328 6.42773C260.863 5.86914 260.199 5.58984 259.336 5.58984C258.473 5.58984 257.779 5.88867 257.256 6.48633C256.732 7.08008 256.471 7.84766 256.471 8.78906V8.97656ZM262.998 8.97656C262.998 9.91797 263.258 10.6875 263.777 11.2852C264.297 11.8789 265.014 12.1758 265.928 12.1758C266.771 12.1758 267.412 11.9531 267.85 11.5078C268.287 11.0586 268.506 10.5566 268.506 10.002V9.97266H267.428V10.002C267.428 10.334 267.309 10.627 267.07 10.8809C266.832 11.1348 266.451 11.2617 265.928 11.2617C265.314 11.2617 264.861 11.041 264.568 10.5996C264.279 10.1582 264.135 9.61719 264.135 8.97656V8.78906C264.135 8.14844 264.279 7.60742 264.568 7.16602C264.861 6.72461 265.314 6.50391 265.928 6.50391C266.451 6.50391 266.832 6.63086 267.07 6.88477C267.309 7.13867 267.428 7.42969 267.428 7.75781V7.78711H268.506V7.75781C268.506 7.20703 268.287 6.70898 267.85 6.26367C267.412 5.81445 266.771 5.58984 265.928 5.58984C265.014 5.58984 264.297 5.88867 263.777 6.48633C263.258 7.08008 262.998 7.84766 262.998 8.78906V8.97656ZM272.473 12H278.221V11.0156H273.914L276.346 8.51953C276.807 8.05078 277.195 7.5918 277.512 7.14258C277.828 6.68945 277.986 6.18359 277.986 5.625C277.986 5 277.74 4.45508 277.248 3.99023C276.76 3.52539 276.115 3.29297 275.314 3.29297C274.506 3.29297 273.828 3.54492 273.281 4.04883C272.738 4.55273 272.467 5.19531 272.467 5.97656V6.03516H273.609V5.97656C273.609 5.4375 273.773 5.01562 274.102 4.71094C274.43 4.40234 274.834 4.24805 275.314 4.24805C275.795 4.24805 276.17 4.39062 276.439 4.67578C276.709 4.96094 276.844 5.29688 276.844 5.68359C276.844 6.07031 276.736 6.42969 276.521 6.76172C276.311 7.08984 276.002 7.46289 275.596 7.88086L272.473 11.1445V12ZM280.436 12H281.613L284.953 4.11328V3.46875H279.135V4.44141H283.746L280.436 12ZM286.178 13.2832L286.805 13.7285C287.117 13.4629 287.367 13.1465 287.555 12.7793C287.746 12.416 287.842 12.0156 287.842 11.5781V10.6816H286.77V11.5781C286.77 11.9336 286.719 12.2441 286.617 12.5098C286.516 12.7754 286.369 13.0332 286.178 13.2832ZM132.621 28H138.369V27.0156H134.062L136.494 24.5195C136.955 24.0508 137.344 23.5918 137.66 23.1426C137.977 22.6895 138.135 22.1836 138.135 21.625C138.135 21 137.889 20.4551 137.396 19.9902C136.908 19.5254 136.264 19.293 135.463 19.293C134.654 19.293 133.977 19.5449 133.43 20.0488C132.887 20.5527 132.615 21.1953 132.615 21.9766V22.0352H133.758V21.9766C133.758 21.4375 133.922 21.0156 134.25 20.7109C134.578 20.4023 134.982 20.248 135.463 20.248C135.943 20.248 136.318 20.3906 136.588 20.6758C136.857 20.9609 136.992 21.2969 136.992 21.6836C136.992 22.0703 136.885 22.4297 136.67 22.7617C136.459 23.0898 136.15 23.4629 135.744 23.8809L132.621 27.1445V28ZM139.465 25.2402C139.465 26.123 139.711 26.834 140.203 27.373C140.699 27.9082 141.387 28.1758 142.266 28.1758C143.137 28.1758 143.822 27.9082 144.322 27.373C144.822 26.834 145.072 26.123 145.072 25.2402V22.2285C145.072 21.3496 144.822 20.6406 144.322 20.1016C143.822 19.5625 143.137 19.293 142.266 19.293C141.387 19.293 140.699 19.5625 140.203 20.1016C139.711 20.6406 139.465 21.3496 139.465 22.2285V25.2402ZM140.625 25.2988V22.1699C140.625 21.6113 140.758 21.1523 141.023 20.793C141.293 20.4297 141.707 20.248 142.266 20.248C142.824 20.248 143.238 20.4297 143.508 20.793C143.777 21.1523 143.912 21.6113 143.912 22.1699V25.2988C143.912 25.8574 143.777 26.3184 143.508 26.6816C143.238 27.041 142.824 27.2207 142.266 27.2207C141.707 27.2207 141.293 27.041 141.023 26.6816C140.758 26.3184 140.625 25.8574 140.625 25.2988ZM146.309 28H152.057V27.0156H147.75L150.182 24.5195C150.643 24.0508 151.031 23.5918 151.348 23.1426C151.664 22.6895 151.822 22.1836 151.822 21.625C151.822 21 151.576 20.4551 151.084 19.9902C150.596 19.5254 149.951 19.293 149.15 19.293C148.342 19.293 147.664 19.5449 147.117 20.0488C146.574 20.5527 146.303 21.1953 146.303 21.9766V22.0352H147.445V21.9766C147.445 21.4375 147.609 21.0156 147.938 20.7109C148.266 20.4023 148.67 20.248 149.15 20.248C149.631 20.248 150.006 20.3906 150.275 20.6758C150.545 20.9609 150.68 21.2969 150.68 21.6836C150.68 22.0703 150.572 22.4297 150.357 22.7617C150.146 23.0898 149.838 23.4629 149.432 23.8809L146.309 27.1445V28ZM155.725 28H156.873V19.3516H156.668L153.521 20.5234V21.6367L155.725 20.7285V28Z" fill="#6D7175"/>
</g>
<defs>
<filter id="filter0_d_459_9450" x="1" y="1" width="122" height="31" filterUnits="userSpaceOnUse" color-interpolation-filters="sRGB">
<feFlood flood-opacity="0" result="BackgroundImageFix"/>
<feColorMatrix in="SourceAlpha" type="matrix" values="0 0 0 0 0 0 0 0 0 0 0 0 0 0 0 0 0 0 127 0" result="hardAlpha"/>
<feOffset dy="1"/>
<feColorMatrix type="matrix" values="0 0 0 0 0 0 0 0 0 0 0 0 0 0 0 0 0 0 0.05 0"/>
<feBlend mode="normal" in2="BackgroundImageFix" result="effect1_dropShadow_459_9450"/>
<feBlend mode="normal" in="SourceGraphic" in2="effect1_dropShadow_459_9450" result="shape"/>
</filter>
<linearGradient id="paint0_linear_459_9450" x1="62" y1="1" x2="62" y2="31" gradientUnits="userSpaceOnUse">
<stop offset="0.864583" stop-color="#BABFC3"/>
<stop offset="1" stop-color="#BBBFC3"/>
</linearGradient>
<clipPath id="clip0_459_9450">
<rect width="96" height="20" fill="white" transform="translate(13 6)"/>
</clipPath>
</defs>
</svg>
