<svg width="726" height="140" viewBox="0 0 726 140" fill="none" xmlns="http://www.w3.org/2000/svg">
<g id="Frame 303">
<g id="Component 1" filter="url(#filter0_dd_319_7821)">
<rect width="228.667" height="140" rx="8" fill="white"/>
<g id="Frame 302">
<path id="Workflows run" d="M18.9922 37.0547H21.2031L23.2188 29.125C23.2604 28.9531 23.2943 28.7943 23.3203 28.6484C23.3516 28.4974 23.3776 28.3333 23.3984 28.1562H23.4531C23.474 28.3333 23.4974 28.4974 23.5234 28.6484C23.5547 28.7943 23.5911 28.9531 23.6328 29.125L25.6562 37.0547H27.9062L30.5859 25.625H28.6953L26.9922 33.5312C26.9609 33.7031 26.9349 33.8438 26.9141 33.9531C26.8932 34.0625 26.875 34.2057 26.8594 34.3828H26.7891C26.7682 34.2057 26.75 34.0625 26.7344 33.9531C26.724 33.8438 26.6953 33.7031 26.6484 33.5312L24.6719 25.625H22.4062L20.4609 33.5391C20.4245 33.7109 20.3984 33.8516 20.3828 33.9609C20.3672 34.0651 20.349 34.2057 20.3281 34.3828H20.2578C20.237 34.2057 20.2188 34.0651 20.2031 33.9609C20.1875 33.8516 20.1589 33.7109 20.1172 33.5391L18.3516 25.625H16.2734L18.9922 37.0547ZM31.2031 33.0312C31.2031 34.2969 31.5781 35.3151 32.3281 36.0859C33.0833 36.8516 34.0755 37.2344 35.3047 37.2344C36.5339 37.2344 37.5234 36.8516 38.2734 36.0859C39.0286 35.3151 39.4062 34.2969 39.4062 33.0312V32.7812C39.4062 31.5104 39.0286 30.4922 38.2734 29.7266C37.5234 28.9609 36.5339 28.5781 35.3047 28.5781C34.0755 28.5781 33.0833 28.9609 32.3281 29.7266C31.5781 30.4922 31.2031 31.5104 31.2031 32.7812V33.0312ZM33.2812 32.6953C33.2812 31.9089 33.4557 31.2891 33.8047 30.8359C34.1536 30.3776 34.6536 30.1484 35.3047 30.1484C35.9557 30.1484 36.4557 30.3776 36.8047 30.8359C37.1536 31.2891 37.3281 31.9089 37.3281 32.6953V33.1094C37.3281 33.901 37.1536 34.526 36.8047 34.9844C36.4609 35.4375 35.9609 35.6641 35.3047 35.6641C34.6484 35.6641 34.1458 35.4375 33.7969 34.9844C33.4531 34.526 33.2812 33.9036 33.2812 33.1172V32.6953ZM41.0469 37H43.0859V31.5781C43.2266 31.2396 43.4453 30.9609 43.7422 30.7422C44.0443 30.5182 44.3906 30.4062 44.7812 30.4062C44.9115 30.4062 45.0286 30.4115 45.1328 30.4219C45.2422 30.4323 45.3438 30.4505 45.4375 30.4766V28.6953C45.3906 28.6745 45.3073 28.651 45.1875 28.625C45.0729 28.599 44.9609 28.5859 44.8516 28.5859C44.4557 28.5859 44.1016 28.7031 43.7891 28.9375C43.4818 29.1719 43.2396 29.4479 43.0625 29.7656H43.0156L42.9688 28.8125H41.0469V37ZM46.7344 37H48.7656V34.375L53.9844 28.8125H51.7266L48.7656 32.0078V25.0547H46.7344V37ZM51.9453 37H54.3359L50.2969 31.6094L49.0078 33.0391L51.9453 37ZM55.5078 37H57.5391V29.5938V29.4297V28.0078C57.5391 27.4922 57.651 27.1068 57.875 26.8516C58.099 26.5964 58.4141 26.4688 58.8203 26.4688C58.9453 26.4688 59.0677 26.4766 59.1875 26.4922C59.3073 26.5078 59.4193 26.526 59.5234 26.5469L59.5938 25.0234C59.4427 24.9818 59.276 24.9505 59.0938 24.9297C58.9167 24.9089 58.7344 24.8984 58.5469 24.8984C57.6458 24.8984 56.9141 25.1562 56.3516 25.6719C55.7891 26.1823 55.5078 26.9453 55.5078 27.9609V37ZM54.3359 30.3125H59.1094V28.8125H56.5781H56.2656H54.3359V30.3125ZM60.5156 37H62.5547V25.0547H60.5156V37ZM64.2344 33.0312C64.2344 34.2969 64.6094 35.3151 65.3594 36.0859C66.1146 36.8516 67.1068 37.2344 68.3359 37.2344C69.5651 37.2344 70.5547 36.8516 71.3047 36.0859C72.0599 35.3151 72.4375 34.2969 72.4375 33.0312V32.7812C72.4375 31.5104 72.0599 30.4922 71.3047 29.7266C70.5547 28.9609 69.5651 28.5781 68.3359 28.5781C67.1068 28.5781 66.1146 28.9609 65.3594 29.7266C64.6094 30.4922 64.2344 31.5104 64.2344 32.7812V33.0312ZM66.3125 32.6953C66.3125 31.9089 66.487 31.2891 66.8359 30.8359C67.1849 30.3776 67.6849 30.1484 68.3359 30.1484C68.987 30.1484 69.487 30.3776 69.8359 30.8359C70.1849 31.2891 70.3594 31.9089 70.3594 32.6953V33.1094C70.3594 33.901 70.1849 34.526 69.8359 34.9844C69.4922 35.4375 68.9922 35.6641 68.3359 35.6641C67.6797 35.6641 67.1771 35.4375 66.8281 34.9844C66.4844 34.526 66.3125 33.9036 66.3125 33.1172V32.6953ZM73.1797 28.8125L75.6562 37H77.5234L79.0234 32.1797C79.0807 31.987 79.1354 31.7891 79.1875 31.5859C79.2396 31.3776 79.2865 31.1745 79.3281 30.9766H79.3672C79.4036 31.1745 79.4479 31.375 79.5 31.5781C79.5521 31.7812 79.6068 31.9818 79.6641 32.1797L81.2188 37H83.0781L85.5547 28.8125H83.7578L82.4688 33.6641C82.4219 33.8672 82.3828 34.0469 82.3516 34.2031C82.3203 34.3594 82.2891 34.5391 82.2578 34.7422H82.2109C82.1745 34.5391 82.138 34.3594 82.1016 34.2031C82.0651 34.0469 82.0156 33.8672 81.9531 33.6641L80.4062 28.8125H78.5078L77.0156 33.6562C76.9583 33.8646 76.9141 34.0469 76.8828 34.2031C76.8516 34.3594 76.8203 34.5365 76.7891 34.7344H76.7422C76.7057 34.5365 76.6693 34.3594 76.6328 34.2031C76.6016 34.0469 76.5599 33.8646 76.5078 33.6562L75.2031 28.8125H73.1797ZM86.2422 34.4688V34.5469C86.2422 35.3906 86.5547 36.0495 87.1797 36.5234C87.8047 36.9974 88.6927 37.2344 89.8438 37.2344C91.0052 37.2344 91.8828 37 92.4766 36.5312C93.0703 36.0573 93.3672 35.4193 93.3672 34.6172C93.3672 33.9089 93.138 33.3568 92.6797 32.9609C92.2214 32.5651 91.526 32.2682 90.5938 32.0703C89.6979 31.8776 89.1172 31.7057 88.8516 31.5547C88.5911 31.3984 88.4609 31.1875 88.4609 30.9219C88.4609 30.6615 88.5677 30.4479 88.7812 30.2812C89 30.1146 89.3438 30.0312 89.8125 30.0312C90.2865 30.0312 90.638 30.1276 90.8672 30.3203C91.0964 30.513 91.2109 30.7812 91.2109 31.125V31.2344H93.2031V31.1562C93.2031 30.3594 92.8932 29.7318 92.2734 29.2734C91.6589 28.8099 90.8411 28.5781 89.8203 28.5781C88.7995 28.5781 87.987 28.8047 87.3828 29.2578C86.7786 29.7057 86.4766 30.3021 86.4766 31.0469C86.4766 31.7135 86.7083 32.2474 87.1719 32.6484C87.6406 33.0443 88.3438 33.3411 89.2812 33.5391C90.1667 33.7318 90.7344 33.9062 90.9844 34.0625C91.2344 34.2188 91.3594 34.4505 91.3594 34.7578C91.3594 35.0703 91.2266 35.3203 90.9609 35.5078C90.7005 35.6953 90.3255 35.7891 89.8359 35.7891C89.3516 35.7891 88.9635 35.6901 88.6719 35.4922C88.3854 35.2943 88.2422 34.9896 88.2422 34.5781V34.4766L86.2422 34.4688ZM98.8906 37H100.93V31.5781C101.07 31.2396 101.289 30.9609 101.586 30.7422C101.888 30.5182 102.234 30.4062 102.625 30.4062C102.755 30.4062 102.872 30.4115 102.977 30.4219C103.086 30.4323 103.188 30.4505 103.281 30.4766V28.6953C103.234 28.6745 103.151 28.651 103.031 28.625C102.917 28.599 102.805 28.5859 102.695 28.5859C102.299 28.5859 101.945 28.7031 101.633 28.9375C101.326 29.1719 101.083 29.4479 100.906 29.7656H100.859L100.812 28.8125H98.8906V37ZM104.5 33.9219C104.5 35.0885 104.755 35.9193 105.266 36.4141C105.781 36.9089 106.448 37.1562 107.266 37.1562C107.786 37.1562 108.258 37.0573 108.68 36.8594C109.102 36.6562 109.44 36.3802 109.695 36.0312H109.742L109.797 37H111.703V28.8125H109.672V34.4062C109.516 34.7396 109.286 35.0182 108.984 35.2422C108.682 35.4609 108.336 35.5703 107.945 35.5703C107.508 35.5703 107.164 35.4505 106.914 35.2109C106.664 34.9714 106.539 34.5547 106.539 33.9609V28.8125H104.5V33.9219ZM113.797 37H115.828V31.4141C115.995 31.0547 116.232 30.7708 116.539 30.5625C116.846 30.3542 117.188 30.25 117.562 30.25C118.01 30.25 118.357 30.3672 118.602 30.6016C118.846 30.8307 118.969 31.224 118.969 31.7812V37H121V31.8125C121 30.651 120.742 29.8333 120.227 29.3594C119.711 28.8854 119.034 28.6484 118.195 28.6484C117.685 28.6484 117.219 28.7552 116.797 28.9688C116.375 29.1771 116.044 29.4479 115.805 29.7812H115.766L115.711 28.8125H113.797V37Z" fill="#202223"/>
<g id="Frame 300">
<path id="242" d="M25.9668 88H30.2529V57.792H28.0996L18.543 61.2373V65.0312L25.9668 62.2627V88ZM39.3379 78.5049C39.3379 81.6631 40.1377 84.1172 41.7373 85.8672C43.3369 87.6172 45.5791 88.4922 48.4639 88.4922C51.2939 88.5059 53.5225 87.6377 55.1494 85.8877C56.79 84.124 57.6104 81.6631 57.6104 78.5049V67.6357C57.6104 64.4775 56.8037 62.0234 55.1904 60.2734C53.5771 58.5234 51.335 57.6484 48.4639 57.6484C45.5928 57.6484 43.3506 58.5303 41.7373 60.2939C40.1377 62.0576 39.3379 64.5049 39.3379 67.6357V78.5049ZM43.6445 79.0176V67.1641C43.6445 65.2363 44.041 63.7256 44.834 62.6318C45.627 61.5381 46.8369 60.9912 48.4639 60.9912C50.0908 60.9912 51.3008 61.5381 52.0938 62.6318C52.9004 63.7256 53.3037 65.2363 53.3037 67.1641V79.0176C53.3037 80.9316 52.9004 82.4355 52.0938 83.5293C51.3008 84.623 50.0908 85.1699 48.4639 85.1699C46.8369 85.1699 45.627 84.623 44.834 83.5293C44.041 82.4355 43.6445 80.9316 43.6445 79.0176Z" fill="#202223"/>
<g id="Frame 300_2">
<g id="arrow-up_minor">
<path id="Primary fill" fill-rule="evenodd" clip-rule="evenodd" d="M91 81V69.414L94.293 72.707C94.684 73.098 95.316 73.098 95.707 72.707C96.098 72.316 96.098 71.684 95.707 71.293L90.707 66.293C90.316 65.902 89.684 65.902 89.293 66.293L84.293 71.293C84.098 71.488 84 71.744 84 72C84 72.256 84.098 72.512 84.293 72.707C84.684 73.098 85.316 73.098 85.707 72.707L89 69.414V81C89 81.553 89.447 82 90 82C90.553 82 91 81.553 91 81Z" fill="#007F5F"/>
</g>
<path id="30%" d="M104.723 77.2988C104.723 78.4707 105.133 79.4277 105.953 80.1699C106.773 80.9121 107.887 81.2832 109.293 81.2832C110.641 81.2832 111.747 80.9121 112.613 80.1699C113.486 79.4212 113.922 78.3991 113.922 77.1035C113.922 76.1725 113.674 75.401 113.18 74.7891C112.685 74.1706 112.037 73.7604 111.236 73.5586V73.5195C111.972 73.207 112.519 72.7578 112.877 72.1719C113.242 71.5794 113.424 70.9349 113.424 70.2383C113.424 69.125 113.036 68.2233 112.262 67.5332C111.487 66.8431 110.497 66.498 109.293 66.498C108.056 66.498 107.047 66.8594 106.266 67.582C105.491 68.3047 105.104 69.1934 105.104 70.248V70.3652H106.822V70.248C106.822 69.5189 107.044 68.9557 107.486 68.5586C107.929 68.1615 108.531 67.9629 109.293 67.9629C110.016 67.9629 110.589 68.1582 111.012 68.5488C111.441 68.9395 111.656 69.5319 111.656 70.3262C111.656 71.153 111.406 71.7845 110.904 72.2207C110.41 72.6569 109.719 72.875 108.834 72.875H107.75V74.3008H108.922C109.892 74.3008 110.67 74.5352 111.256 75.0039C111.842 75.4727 112.135 76.1725 112.135 77.1035C112.135 78.0345 111.878 78.7214 111.363 79.1641C110.849 79.6003 110.159 79.8184 109.293 79.8184C108.44 79.8184 107.75 79.6003 107.223 79.1641C106.695 78.7279 106.432 78.1061 106.432 77.2988V77.1816H104.723V77.2988ZM115.992 76.5469C115.992 77.9857 116.383 79.1348 117.164 79.9941C117.952 80.847 119.042 81.2767 120.436 81.2832C121.816 81.2832 122.9 80.8535 123.688 79.9941C124.482 79.1348 124.879 77.9857 124.879 76.5469V71.2344C124.879 69.7956 124.482 68.6465 123.688 67.7871C122.9 66.9277 121.816 66.498 120.436 66.498C119.042 66.498 117.952 66.9277 117.164 67.7871C116.383 68.6465 115.992 69.7956 115.992 71.2344V76.5469ZM117.77 76.6445V71.1367C117.77 70.1992 117.988 69.4375 118.424 68.8516C118.86 68.2591 119.531 67.9629 120.436 67.9629C121.334 67.9629 122.001 68.2591 122.438 68.8516C122.874 69.4375 123.092 70.1992 123.092 71.1367V76.6445C123.092 77.582 122.874 78.347 122.438 78.9395C122.001 79.5254 121.334 79.8184 120.436 79.8184C119.531 79.8184 118.86 79.5254 118.424 78.9395C117.988 78.347 117.77 77.582 117.77 76.6445ZM126.568 71.0098C126.568 72.0319 126.829 72.8522 127.35 73.4707C127.87 74.0827 128.632 74.3887 129.635 74.3887C130.644 74.3887 131.409 74.0827 131.93 73.4707C132.457 72.8522 132.721 72.0319 132.721 71.0098V69.7988C132.721 68.7767 132.457 67.9596 131.93 67.3477C131.409 66.7292 130.644 66.4199 129.635 66.4199C128.632 66.4199 127.87 66.7259 127.35 67.3379C126.829 67.9499 126.568 68.7702 126.568 69.7988V71.0098ZM128.092 71.0098V69.7988C128.092 69.2129 128.206 68.7344 128.434 68.3633C128.668 67.9922 129.068 67.8066 129.635 67.8066C130.208 67.8066 130.608 67.9922 130.836 68.3633C131.07 68.7344 131.188 69.2129 131.188 69.7988V71.0098C131.188 71.5957 131.07 72.0742 130.836 72.4453C130.608 72.8164 130.208 73.002 129.635 73.002C129.068 73.002 128.668 72.8164 128.434 72.4453C128.206 72.0742 128.092 71.5957 128.092 71.0098ZM139.693 67.1133L138.512 66.3125L129.557 80.6191L130.719 81.4297L139.693 67.1133ZM136.52 77.8262C136.52 78.8483 136.78 79.6686 137.301 80.2871C137.822 80.8991 138.583 81.2051 139.586 81.2051C140.595 81.2051 141.36 80.8991 141.881 80.2871C142.408 79.6686 142.672 78.8483 142.672 77.8262V76.6152C142.672 75.5931 142.408 74.776 141.881 74.1641C141.36 73.5456 140.595 73.2363 139.586 73.2363C138.583 73.2363 137.822 73.5423 137.301 74.1543C136.78 74.7663 136.52 75.5866 136.52 76.6152V77.8262ZM138.043 77.8262V76.6152C138.043 76.0293 138.157 75.5508 138.385 75.1797C138.619 74.8086 139.02 74.623 139.586 74.623C140.159 74.623 140.559 74.8086 140.787 75.1797C141.021 75.5508 141.139 76.0293 141.139 76.6152V77.8262C141.139 78.4121 141.021 78.8906 140.787 79.2617C140.559 79.6328 140.159 79.8184 139.586 79.8184C139.02 79.8184 138.619 79.6328 138.385 79.2617C138.157 78.8906 138.043 78.4121 138.043 77.8262Z" fill="#008060"/>
<path id="(320)" d="M152.539 81.9805V80.75C151.974 80.4036 151.438 79.8066 150.933 78.959C150.431 78.1068 150.181 76.9629 150.181 75.5273V75.3633C150.181 73.8639 150.431 72.7064 150.933 71.8906C151.438 71.0703 151.974 70.487 152.539 70.1406V68.9102C151.609 69.3477 150.762 70.0951 149.996 71.1523C149.23 72.2051 148.848 73.6247 148.848 75.4111V75.4795C148.848 77.1885 149.23 78.5898 149.996 79.6836C150.762 80.7773 151.609 81.543 152.539 81.9805ZM153.332 76.4023C153.332 77.2227 153.624 77.8949 154.207 78.4189C154.79 78.943 155.588 79.2051 156.6 79.2051C157.557 79.2051 158.347 78.943 158.972 78.4189C159.596 77.8949 159.908 77.1748 159.908 76.2588C159.908 75.6253 159.735 75.0921 159.389 74.6592C159.042 74.2262 158.582 73.9368 158.008 73.791V73.7637C158.536 73.5358 158.926 73.2122 159.177 72.793C159.427 72.3737 159.553 71.9362 159.553 71.4805C159.553 70.7057 159.277 70.0723 158.726 69.5801C158.174 69.0879 157.465 68.8418 156.6 68.8418C155.706 68.8418 154.984 69.0993 154.433 69.6143C153.881 70.1292 153.605 70.7513 153.605 71.4805V71.5488H154.877V71.4805C154.877 70.9792 155.032 70.5941 155.342 70.3252C155.652 70.0563 156.071 69.9219 156.6 69.9219C157.101 69.9219 157.5 70.0563 157.796 70.3252C158.092 70.5941 158.24 71.002 158.24 71.5488C158.24 72.0957 158.069 72.5218 157.728 72.8271C157.386 73.1325 156.9 73.2852 156.271 73.2852H155.554V74.3379H156.34C157.023 74.3379 157.568 74.4997 157.974 74.8232C158.379 75.1468 158.582 75.6276 158.582 76.2656C158.582 76.9036 158.402 77.373 158.042 77.6738C157.682 77.9746 157.201 78.125 156.6 78.125C155.998 78.125 155.515 77.9746 155.15 77.6738C154.786 77.373 154.604 76.9492 154.604 76.4023V76.334H153.332V76.4023ZM161.439 79H168.002V77.8652H163.066L165.849 74.9326C166.373 74.3812 166.817 73.8411 167.182 73.3125C167.546 72.7839 167.729 72.196 167.729 71.5488C167.729 70.8197 167.448 70.1862 166.888 69.6484C166.332 69.1107 165.598 68.8418 164.687 68.8418C163.766 68.8418 162.993 69.1335 162.369 69.7168C161.749 70.3001 161.439 71.0475 161.439 71.959V72.0273H162.738V71.959C162.738 71.321 162.925 70.8219 163.299 70.4619C163.677 70.1019 164.14 69.9219 164.687 69.9219C165.233 69.9219 165.66 70.0905 165.965 70.4277C166.275 70.765 166.43 71.1615 166.43 71.6172C166.43 72.0729 166.309 72.4945 166.067 72.8818C165.826 73.2692 165.468 73.7135 164.994 74.2148L161.439 78.043V79ZM169.342 75.8555C169.342 76.8581 169.624 77.667 170.189 78.2822C170.755 78.8975 171.538 79.2051 172.541 79.2051C173.535 79.2051 174.316 78.8975 174.886 78.2822C175.455 77.667 175.74 76.8581 175.74 75.8555V72.1914C175.74 71.1888 175.455 70.3799 174.886 69.7646C174.316 69.1494 173.535 68.8418 172.541 68.8418C171.538 68.8418 170.755 69.1494 170.189 69.7646C169.624 70.3799 169.342 71.1888 169.342 72.1914V75.8555ZM170.668 75.9238V72.123C170.668 71.485 170.821 70.9587 171.126 70.5439C171.431 70.1292 171.903 69.9219 172.541 69.9219C173.179 69.9219 173.651 70.1292 173.956 70.5439C174.261 70.9587 174.414 71.485 174.414 72.123V75.9238C174.414 76.5618 174.261 77.0882 173.956 77.5029C173.651 77.9176 173.179 78.125 172.541 78.125C171.903 78.125 171.431 77.9176 171.126 77.5029C170.821 77.0882 170.668 76.5618 170.668 75.9238ZM176.738 81.9805C177.668 81.543 178.516 80.7773 179.281 79.6836C180.047 78.5898 180.43 77.1885 180.43 75.4795V75.4111C180.43 73.6247 180.047 72.2051 179.281 71.1523C178.516 70.0951 177.668 69.3477 176.738 68.9102V70.1406C177.303 70.487 177.837 71.0703 178.338 71.8906C178.844 72.7064 179.097 73.8639 179.097 75.3633V75.5273C179.097 76.9629 178.844 78.1068 178.338 78.959C177.837 79.8066 177.303 80.4036 176.738 80.75V81.9805Z" fill="#6D7175"/>
</g>
</g>
</g>
<g id="info_minor">
<path id="Primary fill_2" fill-rule="evenodd" clip-rule="evenodd" d="M211 32C211 27.582 207.418 24 203 24C198.582 24 195 27.582 195 32C195 36.418 198.582 40 203 40C207.418 40 211 36.418 211 32ZM202 35C202 35.5523 202.448 36 203 36C203.552 36 204 35.5523 204 35V33C204 32.4477 203.552 32 203 32C202.448 32 202 32.4477 202 33V35ZM202 29C202 29.5523 202.448 30 203 30C203.552 30 204 29.5523 204 29C204 28.4477 203.552 28 203 28C202.448 28 202 28.4477 202 29Z" fill="#8C9196"/>
</g>
</g>
<g id="Component 1_2" filter="url(#filter1_dd_319_7821)">
<rect x="248.667" width="228.667" height="140" rx="8" fill="white"/>
<g id="Frame 302_2">
<path id="Workflows run_2" d="M264.526 37H266.518L269.487 28.7734C269.549 28.5964 269.602 28.4271 269.643 28.2656C269.685 28.1042 269.721 27.9401 269.753 27.7734H269.823C269.854 27.9401 269.891 28.1042 269.932 28.2656C269.974 28.4271 270.026 28.5964 270.089 28.7734L273.057 37H275.292L270.956 25.5625H268.815L264.526 37ZM266.76 34.3438H272.917L272.401 32.75H267.276L266.76 34.3438ZM275.745 33.0312C275.745 34.3021 276.109 35.3203 276.839 36.0859C277.573 36.8516 278.555 37.2344 279.784 37.2344C280.94 37.2344 281.828 36.9349 282.448 36.3359C283.073 35.7318 283.385 35.0339 283.385 34.2422V34.1641H281.409V34.2344C281.409 34.625 281.281 34.9661 281.026 35.2578C280.776 35.5495 280.357 35.6953 279.768 35.6953C279.107 35.6953 278.617 35.4557 278.299 34.9766C277.982 34.4974 277.823 33.8776 277.823 33.1172V32.6953C277.823 31.9297 277.984 31.3099 278.307 30.8359C278.63 30.362 279.117 30.125 279.768 30.125C280.326 30.125 280.737 30.2656 281.003 30.5469C281.273 30.8229 281.409 31.1641 281.409 31.5703V31.6484H283.393L283.385 31.5391C283.354 30.7474 283.034 30.0573 282.424 29.4688C281.82 28.875 280.938 28.5781 279.776 28.5781C278.547 28.5781 277.568 28.9609 276.839 29.7266C276.109 30.487 275.745 31.5052 275.745 32.7812V33.0312ZM283.807 30.3125H288.745V28.8125H283.807V30.3125ZM285.112 34.6953C285.112 35.5703 285.326 36.2109 285.753 36.6172C286.185 37.0234 286.76 37.2266 287.479 37.2266C287.74 37.2266 287.979 37.2031 288.198 37.1562C288.422 37.1094 288.596 37.0547 288.721 36.9922V35.4922C288.602 35.5391 288.477 35.5781 288.346 35.6094C288.221 35.6354 288.096 35.6484 287.971 35.6484C287.701 35.6484 287.492 35.5755 287.346 35.4297C287.206 35.2839 287.135 35.0208 287.135 34.6406V26.8203H285.12V29.3828L285.112 29.6016V34.6953ZM290.174 37H292.214V28.8125H290.174V37ZM289.987 26.4531C289.987 26.7708 290.091 27.0391 290.299 27.2578C290.508 27.4714 290.807 27.5781 291.198 27.5781C291.583 27.5781 291.88 27.4714 292.089 27.2578C292.302 27.0391 292.409 26.7708 292.409 26.4531C292.409 26.1354 292.305 25.8698 292.096 25.6562C291.888 25.4427 291.589 25.3359 291.198 25.3359C290.807 25.3359 290.508 25.4427 290.299 25.6562C290.091 25.8698 289.987 26.1354 289.987 26.4531ZM293.901 33.0312C293.901 34.2969 294.276 35.3151 295.026 36.0859C295.781 36.8516 296.773 37.2344 298.003 37.2344C299.232 37.2344 300.221 36.8516 300.971 36.0859C301.727 35.3151 302.104 34.2969 302.104 33.0312V32.7812C302.104 31.5104 301.727 30.4922 300.971 29.7266C300.221 28.9609 299.232 28.5781 298.003 28.5781C296.773 28.5781 295.781 28.9609 295.026 29.7266C294.276 30.4922 293.901 31.5104 293.901 32.7812V33.0312ZM295.979 32.6953C295.979 31.9089 296.154 31.2891 296.503 30.8359C296.852 30.3776 297.352 30.1484 298.003 30.1484C298.654 30.1484 299.154 30.3776 299.503 30.8359C299.852 31.2891 300.026 31.9089 300.026 32.6953V33.1094C300.026 33.901 299.852 34.526 299.503 34.9844C299.159 35.4375 298.659 35.6641 298.003 35.6641C297.346 35.6641 296.844 35.4375 296.495 34.9844C296.151 34.526 295.979 33.9036 295.979 33.1172V32.6953ZM303.745 37H305.776V31.4141C305.943 31.0547 306.18 30.7708 306.487 30.5625C306.794 30.3542 307.135 30.25 307.51 30.25C307.958 30.25 308.305 30.3672 308.549 30.6016C308.794 30.8307 308.917 31.224 308.917 31.7812V37H310.948V31.8125C310.948 30.651 310.69 29.8333 310.174 29.3594C309.659 28.8854 308.982 28.6484 308.143 28.6484C307.633 28.6484 307.167 28.7552 306.745 28.9688C306.323 29.1771 305.992 29.4479 305.753 29.7812H305.714L305.659 28.8125H303.745V37ZM312.456 34.4688V34.5469C312.456 35.3906 312.768 36.0495 313.393 36.5234C314.018 36.9974 314.906 37.2344 316.057 37.2344C317.219 37.2344 318.096 37 318.69 36.5312C319.284 36.0573 319.581 35.4193 319.581 34.6172C319.581 33.9089 319.352 33.3568 318.893 32.9609C318.435 32.5651 317.74 32.2682 316.807 32.0703C315.911 31.8776 315.331 31.7057 315.065 31.5547C314.805 31.3984 314.674 31.1875 314.674 30.9219C314.674 30.6615 314.781 30.4479 314.995 30.2812C315.214 30.1146 315.557 30.0312 316.026 30.0312C316.5 30.0312 316.852 30.1276 317.081 30.3203C317.31 30.513 317.424 30.7812 317.424 31.125V31.2344H319.417V31.1562C319.417 30.3594 319.107 29.7318 318.487 29.2734C317.872 28.8099 317.055 28.5781 316.034 28.5781C315.013 28.5781 314.201 28.8047 313.596 29.2578C312.992 29.7057 312.69 30.3021 312.69 31.0469C312.69 31.7135 312.922 32.2474 313.385 32.6484C313.854 33.0443 314.557 33.3411 315.495 33.5391C316.38 33.7318 316.948 33.9062 317.198 34.0625C317.448 34.2188 317.573 34.4505 317.573 34.7578C317.573 35.0703 317.44 35.3203 317.174 35.5078C316.914 35.6953 316.539 35.7891 316.049 35.7891C315.565 35.7891 315.177 35.6901 314.885 35.4922C314.599 35.2943 314.456 34.9896 314.456 34.5781V34.4766L312.456 34.4688ZM324.651 33.0312C324.651 34.2865 325.016 35.3021 325.745 36.0781C326.474 36.849 327.492 37.2344 328.799 37.2344C329.628 37.2344 330.336 37.0703 330.924 36.7422C331.518 36.4089 331.945 36.0104 332.206 35.5469L330.792 34.6016C330.583 34.8932 330.31 35.1484 329.971 35.3672C329.638 35.5859 329.24 35.6953 328.776 35.6953C328.078 35.6953 327.555 35.4557 327.206 34.9766C326.857 34.4974 326.682 33.875 326.682 33.1094V32.6875C326.682 31.9167 326.844 31.2917 327.167 30.8125C327.495 30.3333 327.979 30.0938 328.62 30.0938C329.161 30.0938 329.578 30.2656 329.87 30.6094C330.161 30.9531 330.307 31.375 330.307 31.875V32.0469H325.987V33.3906H332.323V32.6406C332.323 31.3802 331.995 30.388 331.339 29.6641C330.682 28.9401 329.771 28.5781 328.604 28.5781C327.438 28.5781 326.487 28.9661 325.753 29.7422C325.018 30.513 324.651 31.526 324.651 32.7812V33.0312ZM332.909 37H334.924L337.339 33.3281H337.604L340.573 28.8125H338.565L336.339 32.3516L336.065 32.3594L332.909 37ZM333.112 28.8125L336.12 33.3125L336.174 33.3203L338.557 37H340.862L337.721 32.3516H337.667L335.417 28.8125H333.112ZM341.432 33.0312C341.432 34.2865 341.797 35.3021 342.526 36.0781C343.255 36.849 344.273 37.2344 345.581 37.2344C346.409 37.2344 347.117 37.0703 347.706 36.7422C348.299 36.4089 348.727 36.0104 348.987 35.5469L347.573 34.6016C347.365 34.8932 347.091 35.1484 346.753 35.3672C346.419 35.5859 346.021 35.6953 345.557 35.6953C344.859 35.6953 344.336 35.4557 343.987 34.9766C343.638 34.4974 343.464 33.875 343.464 33.1094V32.6875C343.464 31.9167 343.625 31.2917 343.948 30.8125C344.276 30.3333 344.76 30.0938 345.401 30.0938C345.943 30.0938 346.359 30.2656 346.651 30.6094C346.943 30.9531 347.089 31.375 347.089 31.875V32.0469H342.768V33.3906H349.104V32.6406C349.104 31.3802 348.776 30.388 348.12 29.6641C347.464 28.9401 346.552 28.5781 345.385 28.5781C344.219 28.5781 343.268 28.9661 342.534 29.7422C341.799 30.513 341.432 31.526 341.432 32.7812V33.0312ZM350.214 33.0312C350.214 34.3021 350.578 35.3203 351.307 36.0859C352.042 36.8516 353.023 37.2344 354.253 37.2344C355.409 37.2344 356.297 36.9349 356.917 36.3359C357.542 35.7318 357.854 35.0339 357.854 34.2422V34.1641H355.878V34.2344C355.878 34.625 355.75 34.9661 355.495 35.2578C355.245 35.5495 354.826 35.6953 354.237 35.6953C353.576 35.6953 353.086 35.4557 352.768 34.9766C352.451 34.4974 352.292 33.8776 352.292 33.1172V32.6953C352.292 31.9297 352.453 31.3099 352.776 30.8359C353.099 30.362 353.586 30.125 354.237 30.125C354.794 30.125 355.206 30.2656 355.471 30.5469C355.742 30.8229 355.878 31.1641 355.878 31.5703V31.6484H357.862L357.854 31.5391C357.823 30.7474 357.503 30.0573 356.893 29.4688C356.289 28.875 355.406 28.5781 354.245 28.5781C353.016 28.5781 352.036 28.9609 351.307 29.7266C350.578 30.487 350.214 31.5052 350.214 32.7812V33.0312ZM359.245 33.9219C359.245 35.0885 359.5 35.9193 360.01 36.4141C360.526 36.9089 361.193 37.1562 362.01 37.1562C362.531 37.1562 363.003 37.0573 363.424 36.8594C363.846 36.6562 364.185 36.3802 364.44 36.0312H364.487L364.542 37H366.448V28.8125H364.417V34.4062C364.26 34.7396 364.031 35.0182 363.729 35.2422C363.427 35.4609 363.081 35.5703 362.69 35.5703C362.253 35.5703 361.909 35.4505 361.659 35.2109C361.409 34.9714 361.284 34.5547 361.284 33.9609V28.8125H359.245V33.9219ZM367.495 30.3125H372.432V28.8125H367.495V30.3125ZM368.799 34.6953C368.799 35.5703 369.013 36.2109 369.44 36.6172C369.872 37.0234 370.448 37.2266 371.167 37.2266C371.427 37.2266 371.667 37.2031 371.885 37.1562C372.109 37.1094 372.284 37.0547 372.409 36.9922V35.4922C372.289 35.5391 372.164 35.5781 372.034 35.6094C371.909 35.6354 371.784 35.6484 371.659 35.6484C371.388 35.6484 371.18 35.5755 371.034 35.4297C370.893 35.2839 370.823 35.0208 370.823 34.6406V26.8203H368.807V29.3828L368.799 29.6016V34.6953ZM373.37 33.0312C373.37 34.2865 373.734 35.3021 374.464 36.0781C375.193 36.849 376.211 37.2344 377.518 37.2344C378.346 37.2344 379.055 37.0703 379.643 36.7422C380.237 36.4089 380.664 36.0104 380.924 35.5469L379.51 34.6016C379.302 34.8932 379.029 35.1484 378.69 35.3672C378.357 35.5859 377.958 35.6953 377.495 35.6953C376.797 35.6953 376.273 35.4557 375.924 34.9766C375.576 34.4974 375.401 33.875 375.401 33.1094V32.6875C375.401 31.9167 375.563 31.2917 375.885 30.8125C376.214 30.3333 376.698 30.0938 377.339 30.0938C377.88 30.0938 378.297 30.2656 378.589 30.6094C378.88 30.9531 379.026 31.375 379.026 31.875V32.0469H374.706V33.3906H381.042V32.6406C381.042 31.3802 380.714 30.388 380.057 29.6641C379.401 28.9401 378.49 28.5781 377.323 28.5781C376.156 28.5781 375.206 28.9661 374.471 29.7422C373.737 30.513 373.37 31.526 373.37 32.7812V33.0312ZM382.151 33.0312C382.151 34.2396 382.464 35.2292 383.089 36C383.719 36.7708 384.576 37.1562 385.659 37.1562C386.195 37.1562 386.667 37.0469 387.073 36.8281C387.484 36.6042 387.781 36.3307 387.964 36.0078H388.003L388.057 37H389.964V25.0547H387.94V29.6953C387.721 29.3828 387.419 29.1328 387.034 28.9453C386.648 28.7526 386.19 28.6562 385.659 28.6562C384.607 28.6562 383.758 29.0417 383.112 29.8125C382.471 30.5833 382.151 31.5729 382.151 32.7812V33.0312ZM384.221 33.1016V32.7109C384.221 31.987 384.38 31.3906 384.698 30.9219C385.021 30.4531 385.503 30.2188 386.143 30.2188C386.596 30.2188 386.971 30.3385 387.268 30.5781C387.57 30.8125 387.792 31.0911 387.932 31.4141V34.3984C387.792 34.7161 387.568 34.9948 387.26 35.2344C386.953 35.474 386.581 35.5938 386.143 35.5938C385.497 35.5938 385.016 35.362 384.698 34.8984C384.38 34.4297 384.221 33.8307 384.221 33.1016Z" fill="#202223"/>
<g id="Frame 300_3">
<path id="242_2" d="M266.143 88H285.195V84.4316H271.824L279.453 75.3877C280.97 73.6104 282.187 71.9766 283.103 70.4863C284.019 68.9824 284.477 67.3076 284.477 65.4619C284.477 63.1787 283.671 61.3057 282.057 59.8428C280.458 58.3799 278.284 57.6484 275.536 57.6484C272.801 57.6484 270.552 58.4482 268.789 60.0479C267.025 61.6475 266.143 63.8008 266.143 66.5078V67.1641H270.429V66.6924C270.429 64.6826 270.915 63.2334 271.885 62.3447C272.856 61.4424 274.059 60.9912 275.495 60.9912C276.903 60.9912 278.038 61.4082 278.899 62.2422C279.76 63.0625 280.191 64.2178 280.191 65.708C280.191 66.9932 279.822 68.251 279.084 69.4814C278.359 70.6982 277.423 71.9834 276.274 73.3369L266.143 85.1084V88ZM299.386 88H303.447V58.1406H299.632L286.815 78.1152V81.2324H307.261V77.7461H301.642L300.678 77.7871H291.183L299.243 64.5596H299.427V79.3867L299.386 80.0225V88ZM309.456 88H328.507V84.4316H315.136L322.765 75.3877C324.283 73.6104 325.5 71.9766 326.416 70.4863C327.332 68.9824 327.79 67.3076 327.79 65.4619C327.79 63.1787 326.983 61.3057 325.37 59.8428C323.77 58.3799 321.596 57.6484 318.848 57.6484C316.114 57.6484 313.865 58.4482 312.101 60.0479C310.338 61.6475 309.456 63.8008 309.456 66.5078V67.1641H313.742V66.6924C313.742 64.6826 314.227 63.2334 315.198 62.3447C316.169 61.4424 317.372 60.9912 318.807 60.9912C320.215 60.9912 321.35 61.4082 322.212 62.2422C323.073 63.0625 323.504 64.2178 323.504 65.708C323.504 66.9932 323.134 68.251 322.396 69.4814C321.672 70.6982 320.735 71.9834 319.587 73.3369L309.456 85.1084V88Z" fill="#202223"/>
<g id="Frame 300_4">
<g id="arrow-down_minor">
<path id="Primary fill_3" fill-rule="evenodd" clip-rule="evenodd" d="M360.374 81.707L365.374 76.707C365.765 76.316 365.765 75.684 365.374 75.293C364.983 74.902 364.351 74.902 363.96 75.293L360.667 78.586V67C360.667 66.447 360.22 66 359.667 66C359.114 66 358.667 66.447 358.667 67V78.586L355.374 75.293C354.983 74.902 354.351 74.902 353.96 75.293C353.765 75.488 353.667 75.744 353.667 76C353.667 76.256 353.765 76.512 353.96 76.707L358.96 81.707C359.351 82.098 359.983 82.098 360.374 81.707Z" fill="#D72C0D"/>
</g>
<path id="30%_2" d="M374.389 77.2988C374.389 78.4707 374.799 79.4277 375.62 80.1699C376.44 80.9121 377.553 81.2832 378.96 81.2832C380.307 81.2832 381.414 80.9121 382.28 80.1699C383.152 79.4212 383.589 78.3991 383.589 77.1035C383.589 76.1725 383.341 75.401 382.846 74.7891C382.352 74.1706 381.704 73.7604 380.903 73.5586V73.5195C381.639 73.207 382.186 72.7578 382.544 72.1719C382.908 71.5794 383.091 70.9349 383.091 70.2383C383.091 69.125 382.703 68.2233 381.928 67.5332C381.154 66.8431 380.164 66.498 378.96 66.498C377.723 66.498 376.714 66.8594 375.932 67.582C375.158 68.3047 374.77 69.1934 374.77 70.248V70.3652H376.489V70.248C376.489 69.5189 376.71 68.9557 377.153 68.5586C377.596 68.1615 378.198 67.9629 378.96 67.9629C379.682 67.9629 380.255 68.1582 380.678 68.5488C381.108 68.9395 381.323 69.5319 381.323 70.3262C381.323 71.153 381.072 71.7845 380.571 72.2207C380.076 72.6569 379.386 72.875 378.501 72.875H377.417V74.3008H378.589C379.559 74.3008 380.337 74.5352 380.923 75.0039C381.508 75.4727 381.801 76.1725 381.801 77.1035C381.801 78.0345 381.544 78.7214 381.03 79.1641C380.516 79.6003 379.826 79.8184 378.96 79.8184C378.107 79.8184 377.417 79.6003 376.889 79.1641C376.362 78.7279 376.098 78.1061 376.098 77.2988V77.1816H374.389V77.2988ZM385.659 76.5469C385.659 77.9857 386.049 79.1348 386.831 79.9941C387.619 80.847 388.709 81.2767 390.102 81.2832C391.482 81.2832 392.566 80.8535 393.354 79.9941C394.148 79.1348 394.546 77.9857 394.546 76.5469V71.2344C394.546 69.7956 394.148 68.6465 393.354 67.7871C392.566 66.9277 391.482 66.498 390.102 66.498C388.709 66.498 387.619 66.9277 386.831 67.7871C386.049 68.6465 385.659 69.7956 385.659 71.2344V76.5469ZM387.436 76.6445V71.1367C387.436 70.1992 387.654 69.4375 388.091 68.8516C388.527 68.2591 389.197 67.9629 390.102 67.9629C391.001 67.9629 391.668 68.2591 392.104 68.8516C392.54 69.4375 392.758 70.1992 392.758 71.1367V76.6445C392.758 77.582 392.54 78.347 392.104 78.9395C391.668 79.5254 391.001 79.8184 390.102 79.8184C389.197 79.8184 388.527 79.5254 388.091 78.9395C387.654 78.347 387.436 77.582 387.436 76.6445ZM396.235 71.0098C396.235 72.0319 396.495 72.8522 397.016 73.4707C397.537 74.0827 398.299 74.3887 399.301 74.3887C400.311 74.3887 401.076 74.0827 401.596 73.4707C402.124 72.8522 402.387 72.0319 402.387 71.0098V69.7988C402.387 68.7767 402.124 67.9596 401.596 67.3477C401.076 66.7292 400.311 66.4199 399.301 66.4199C398.299 66.4199 397.537 66.7259 397.016 67.3379C396.495 67.9499 396.235 68.7702 396.235 69.7988V71.0098ZM397.758 71.0098V69.7988C397.758 69.2129 397.872 68.7344 398.1 68.3633C398.335 67.9922 398.735 67.8066 399.301 67.8066C399.874 67.8066 400.275 67.9922 400.503 68.3633C400.737 68.7344 400.854 69.2129 400.854 69.7988V71.0098C400.854 71.5957 400.737 72.0742 400.503 72.4453C400.275 72.8164 399.874 73.002 399.301 73.002C398.735 73.002 398.335 72.8164 398.1 72.4453C397.872 72.0742 397.758 71.5957 397.758 71.0098ZM409.36 67.1133L408.178 66.3125L399.223 80.6191L400.385 81.4297L409.36 67.1133ZM406.186 77.8262C406.186 78.8483 406.447 79.6686 406.967 80.2871C407.488 80.8991 408.25 81.2051 409.253 81.2051C410.262 81.2051 411.027 80.8991 411.548 80.2871C412.075 79.6686 412.339 78.8483 412.339 77.8262V76.6152C412.339 75.5931 412.075 74.776 411.548 74.1641C411.027 73.5456 410.262 73.2363 409.253 73.2363C408.25 73.2363 407.488 73.5423 406.967 74.1543C406.447 74.7663 406.186 75.5866 406.186 76.6152V77.8262ZM407.71 77.8262V76.6152C407.71 76.0293 407.824 75.5508 408.051 75.1797C408.286 74.8086 408.686 74.623 409.253 74.623C409.826 74.623 410.226 74.8086 410.454 75.1797C410.688 75.5508 410.805 76.0293 410.805 76.6152V77.8262C410.805 78.4121 410.688 78.8906 410.454 79.2617C410.226 79.6328 409.826 79.8184 409.253 79.8184C408.686 79.8184 408.286 79.6328 408.051 79.2617C407.824 78.8906 407.71 78.4121 407.71 77.8262Z" fill="#D72C0D"/>
<path id="(320)_2" d="M422.206 81.9805V80.75C421.641 80.4036 421.105 79.8066 420.599 78.959C420.098 78.1068 419.847 76.9629 419.847 75.5273V75.3633C419.847 73.8639 420.098 72.7064 420.599 71.8906C421.105 71.0703 421.641 70.487 422.206 70.1406V68.9102C421.276 69.3477 420.428 70.0951 419.663 71.1523C418.897 72.2051 418.514 73.6247 418.514 75.4111V75.4795C418.514 77.1885 418.897 78.5898 419.663 79.6836C420.428 80.7773 421.276 81.543 422.206 81.9805ZM422.999 76.4023C422.999 77.2227 423.29 77.8949 423.874 78.4189C424.457 78.943 425.255 79.2051 426.266 79.2051C427.223 79.2051 428.014 78.943 428.638 78.4189C429.263 77.8949 429.575 77.1748 429.575 76.2588C429.575 75.6253 429.402 75.0921 429.055 74.6592C428.709 74.2262 428.249 73.9368 427.674 73.791V73.7637C428.203 73.5358 428.593 73.2122 428.843 72.793C429.094 72.3737 429.219 71.9362 429.219 71.4805C429.219 70.7057 428.944 70.0723 428.392 69.5801C427.841 69.0879 427.132 68.8418 426.266 68.8418C425.373 68.8418 424.651 69.0993 424.099 69.6143C423.548 70.1292 423.272 70.7513 423.272 71.4805V71.5488H424.544V71.4805C424.544 70.9792 424.699 70.5941 425.008 70.3252C425.318 70.0563 425.738 69.9219 426.266 69.9219C426.768 69.9219 427.166 70.0563 427.463 70.3252C427.759 70.5941 427.907 71.002 427.907 71.5488C427.907 72.0957 427.736 72.5218 427.394 72.8271C427.052 73.1325 426.567 73.2852 425.938 73.2852H425.22V74.3379H426.007C426.69 74.3379 427.235 74.4997 427.64 74.8232C428.046 75.1468 428.249 75.6276 428.249 76.2656C428.249 76.9036 428.069 77.373 427.709 77.6738C427.349 77.9746 426.868 78.125 426.266 78.125C425.665 78.125 425.182 77.9746 424.817 77.6738C424.452 77.373 424.27 76.9492 424.27 76.4023V76.334H422.999V76.4023ZM431.106 79H437.669V77.8652H432.733L435.515 74.9326C436.039 74.3812 436.484 73.8411 436.848 73.3125C437.213 72.7839 437.395 72.196 437.395 71.5488C437.395 70.8197 437.115 70.1862 436.554 69.6484C435.998 69.1107 435.265 68.8418 434.353 68.8418C433.433 68.8418 432.66 69.1335 432.036 69.7168C431.416 70.3001 431.106 71.0475 431.106 71.959V72.0273H432.405V71.959C432.405 71.321 432.592 70.8219 432.966 70.4619C433.344 70.1019 433.806 69.9219 434.353 69.9219C434.9 69.9219 435.326 70.0905 435.632 70.4277C435.941 70.765 436.096 71.1615 436.096 71.6172C436.096 72.0729 435.976 72.4945 435.734 72.8818C435.493 73.2692 435.135 73.7135 434.661 74.2148L431.106 78.043V79ZM439.008 75.8555C439.008 76.8581 439.291 77.667 439.856 78.2822C440.421 78.8975 441.205 79.2051 442.208 79.2051C443.201 79.2051 443.983 78.8975 444.552 78.2822C445.122 77.667 445.407 76.8581 445.407 75.8555V72.1914C445.407 71.1888 445.122 70.3799 444.552 69.7646C443.983 69.1494 443.201 68.8418 442.208 68.8418C441.205 68.8418 440.421 69.1494 439.856 69.7646C439.291 70.3799 439.008 71.1888 439.008 72.1914V75.8555ZM440.335 75.9238V72.123C440.335 71.485 440.487 70.9587 440.793 70.5439C441.098 70.1292 441.57 69.9219 442.208 69.9219C442.846 69.9219 443.317 70.1292 443.623 70.5439C443.928 70.9587 444.081 71.485 444.081 72.123V75.9238C444.081 76.5618 443.928 77.0882 443.623 77.5029C443.317 77.9176 442.846 78.125 442.208 78.125C441.57 78.125 441.098 77.9176 440.793 77.5029C440.487 77.0882 440.335 76.5618 440.335 75.9238ZM446.405 81.9805C447.335 81.543 448.182 80.7773 448.948 79.6836C449.714 78.5898 450.096 77.1885 450.096 75.4795V75.4111C450.096 73.6247 449.714 72.2051 448.948 71.1523C448.182 70.0951 447.335 69.3477 446.405 68.9102V70.1406C446.97 70.487 447.503 71.0703 448.005 71.8906C448.51 72.7064 448.763 73.8639 448.763 75.3633V75.5273C448.763 76.9629 448.51 78.1068 448.005 78.959C447.503 79.8066 446.97 80.4036 446.405 80.75V81.9805Z" fill="#6D7175"/>
</g>
</g>
</g>
<g id="info_minor_2">
<path id="Primary fill_4" fill-rule="evenodd" clip-rule="evenodd" d="M459.667 32C459.667 27.582 456.085 24 451.667 24C447.249 24 443.667 27.582 443.667 32C443.667 36.418 447.249 40 451.667 40C456.085 40 459.667 36.418 459.667 32ZM450.667 35C450.667 35.5523 451.114 36 451.667 36C452.219 36 452.667 35.5523 452.667 35V33C452.667 32.4477 452.219 32 451.667 32C451.114 32 450.667 32.4477 450.667 33V35ZM450.667 29C450.667 29.5523 451.114 30 451.667 30C452.219 30 452.667 29.5523 452.667 29C452.667 28.4477 452.219 28 451.667 28C451.114 28 450.667 28.4477 450.667 29Z" fill="#8C9196"/>
</g>
</g>
<g id="Component 1_3" filter="url(#filter2_dd_319_7821)">
<rect x="497.333" width="228.667" height="140" rx="8" fill="white"/>
<g id="Frame 302_3">
<path id="Workflows run_3" d="M513.193 37H515.185L518.154 28.7734C518.216 28.5964 518.268 28.4271 518.31 28.2656C518.352 28.1042 518.388 27.9401 518.419 27.7734H518.49C518.521 27.9401 518.557 28.1042 518.599 28.2656C518.641 28.4271 518.693 28.5964 518.755 28.7734L521.724 37H523.958L519.622 25.5625H517.482L513.193 37ZM515.427 34.3438H521.583L521.068 32.75H515.943L515.427 34.3438ZM524.411 33.0312C524.411 34.3021 524.776 35.3203 525.505 36.0859C526.24 36.8516 527.221 37.2344 528.451 37.2344C529.607 37.2344 530.495 36.9349 531.115 36.3359C531.74 35.7318 532.052 35.0339 532.052 34.2422V34.1641H530.076V34.2344C530.076 34.625 529.948 34.9661 529.693 35.2578C529.443 35.5495 529.023 35.6953 528.435 35.6953C527.773 35.6953 527.284 35.4557 526.966 34.9766C526.648 34.4974 526.49 33.8776 526.49 33.1172V32.6953C526.49 31.9297 526.651 31.3099 526.974 30.8359C527.297 30.362 527.784 30.125 528.435 30.125C528.992 30.125 529.404 30.2656 529.669 30.5469C529.94 30.8229 530.076 31.1641 530.076 31.5703V31.6484H532.06L532.052 31.5391C532.021 30.7474 531.701 30.0573 531.091 29.4688C530.487 28.875 529.604 28.5781 528.443 28.5781C527.214 28.5781 526.234 28.9609 525.505 29.7266C524.776 30.487 524.411 31.5052 524.411 32.7812V33.0312ZM532.474 30.3125H537.411V28.8125H532.474V30.3125ZM533.779 34.6953C533.779 35.5703 533.992 36.2109 534.419 36.6172C534.852 37.0234 535.427 37.2266 536.146 37.2266C536.406 37.2266 536.646 37.2031 536.865 37.1562C537.089 37.1094 537.263 37.0547 537.388 36.9922V35.4922C537.268 35.5391 537.143 35.5781 537.013 35.6094C536.888 35.6354 536.763 35.6484 536.638 35.6484C536.367 35.6484 536.159 35.5755 536.013 35.4297C535.872 35.2839 535.802 35.0208 535.802 34.6406V26.8203H533.786V29.3828L533.779 29.6016V34.6953ZM538.841 37H540.88V28.8125H538.841V37ZM538.654 26.4531C538.654 26.7708 538.758 27.0391 538.966 27.2578C539.174 27.4714 539.474 27.5781 539.865 27.5781C540.25 27.5781 540.547 27.4714 540.755 27.2578C540.969 27.0391 541.076 26.7708 541.076 26.4531C541.076 26.1354 540.971 25.8698 540.763 25.6562C540.555 25.4427 540.255 25.3359 539.865 25.3359C539.474 25.3359 539.174 25.4427 538.966 25.6562C538.758 25.8698 538.654 26.1354 538.654 26.4531ZM542.568 33.0312C542.568 34.2969 542.943 35.3151 543.693 36.0859C544.448 36.8516 545.44 37.2344 546.669 37.2344C547.898 37.2344 548.888 36.8516 549.638 36.0859C550.393 35.3151 550.771 34.2969 550.771 33.0312V32.7812C550.771 31.5104 550.393 30.4922 549.638 29.7266C548.888 28.9609 547.898 28.5781 546.669 28.5781C545.44 28.5781 544.448 28.9609 543.693 29.7266C542.943 30.4922 542.568 31.5104 542.568 32.7812V33.0312ZM544.646 32.6953C544.646 31.9089 544.82 31.2891 545.169 30.8359C545.518 30.3776 546.018 30.1484 546.669 30.1484C547.32 30.1484 547.82 30.3776 548.169 30.8359C548.518 31.2891 548.693 31.9089 548.693 32.6953V33.1094C548.693 33.901 548.518 34.526 548.169 34.9844C547.826 35.4375 547.326 35.6641 546.669 35.6641C546.013 35.6641 545.51 35.4375 545.161 34.9844C544.818 34.526 544.646 33.9036 544.646 33.1172V32.6953ZM552.411 37H554.443V31.4141C554.609 31.0547 554.846 30.7708 555.154 30.5625C555.461 30.3542 555.802 30.25 556.177 30.25C556.625 30.25 556.971 30.3672 557.216 30.6016C557.461 30.8307 557.583 31.224 557.583 31.7812V37H559.615V31.8125C559.615 30.651 559.357 29.8333 558.841 29.3594C558.326 28.8854 557.648 28.6484 556.81 28.6484C556.299 28.6484 555.833 28.7552 555.411 28.9688C554.99 29.1771 554.659 29.4479 554.419 29.7812H554.38L554.326 28.8125H552.411V37ZM561.122 34.4688V34.5469C561.122 35.3906 561.435 36.0495 562.06 36.5234C562.685 36.9974 563.573 37.2344 564.724 37.2344C565.885 37.2344 566.763 37 567.357 36.5312C567.951 36.0573 568.247 35.4193 568.247 34.6172C568.247 33.9089 568.018 33.3568 567.56 32.9609C567.102 32.5651 566.406 32.2682 565.474 32.0703C564.578 31.8776 563.997 31.7057 563.732 31.5547C563.471 31.3984 563.341 31.1875 563.341 30.9219C563.341 30.6615 563.448 30.4479 563.661 30.2812C563.88 30.1146 564.224 30.0312 564.693 30.0312C565.167 30.0312 565.518 30.1276 565.747 30.3203C565.977 30.513 566.091 30.7812 566.091 31.125V31.2344H568.083V31.1562C568.083 30.3594 567.773 29.7318 567.154 29.2734C566.539 28.8099 565.721 28.5781 564.701 28.5781C563.68 28.5781 562.867 28.8047 562.263 29.2578C561.659 29.7057 561.357 30.3021 561.357 31.0469C561.357 31.7135 561.589 32.2474 562.052 32.6484C562.521 33.0443 563.224 33.3411 564.161 33.5391C565.047 33.7318 565.615 33.9062 565.865 34.0625C566.115 34.2188 566.24 34.4505 566.24 34.7578C566.24 35.0703 566.107 35.3203 565.841 35.5078C565.581 35.6953 565.206 35.7891 564.716 35.7891C564.232 35.7891 563.844 35.6901 563.552 35.4922C563.266 35.2943 563.122 34.9896 563.122 34.5781V34.4766L561.122 34.4688ZM574.076 37H576.107V29.5938V29.4297V28.0078C576.107 27.4922 576.219 27.1068 576.443 26.8516C576.667 26.5964 576.982 26.4688 577.388 26.4688C577.513 26.4688 577.635 26.4766 577.755 26.4922C577.875 26.5078 577.987 26.526 578.091 26.5469L578.161 25.0234C578.01 24.9818 577.844 24.9505 577.661 24.9297C577.484 24.9089 577.302 24.8984 577.115 24.8984C576.214 24.8984 575.482 25.1562 574.919 25.6719C574.357 26.1823 574.076 26.9453 574.076 27.9609V37ZM572.904 30.3125H577.677V28.8125H575.146H574.833H572.904V30.3125ZM578.24 34.5938C578.24 35.4375 578.51 36.0755 579.052 36.5078C579.594 36.9349 580.26 37.1484 581.052 37.1484C581.729 37.1484 582.289 37.026 582.732 36.7812C583.174 36.5312 583.479 36.2474 583.646 35.9297C583.667 36.1224 583.703 36.3177 583.755 36.5156C583.807 36.7135 583.865 36.875 583.927 37H585.919V36.875C585.82 36.6562 585.742 36.3984 585.685 36.1016C585.628 35.7995 585.599 35.4818 585.599 35.1484V31.3984C585.599 30.4453 585.302 29.7396 584.708 29.2812C584.115 28.8177 583.286 28.5859 582.224 28.5859C581.167 28.5859 580.313 28.8255 579.661 29.3047C579.01 29.7839 578.685 30.3776 578.685 31.0859V31.1875H580.693V31.0859C580.693 30.7891 580.802 30.5365 581.021 30.3281C581.245 30.1198 581.62 30.0156 582.146 30.0156C582.672 30.0156 583.039 30.1432 583.247 30.3984C583.461 30.6484 583.568 30.9792 583.568 31.3906V31.8828H581.88C580.828 31.888 579.958 32.1198 579.271 32.5781C578.583 33.0365 578.24 33.7083 578.24 34.5938ZM580.271 34.4297C580.271 34.0286 580.427 33.7161 580.74 33.4922C581.052 33.2682 581.526 33.1562 582.161 33.1562H583.568V34.0703C583.568 34.5026 583.383 34.888 583.013 35.2266C582.648 35.5599 582.208 35.7266 581.693 35.7266C581.203 35.7266 580.844 35.6094 580.615 35.375C580.385 35.1406 580.271 34.8255 580.271 34.4297ZM587.747 37H589.786V28.8125H587.747V37ZM587.56 26.4531C587.56 26.7708 587.664 27.0391 587.872 27.2578C588.081 27.4714 588.38 27.5781 588.771 27.5781C589.156 27.5781 589.453 27.4714 589.661 27.2578C589.875 27.0391 589.982 26.7708 589.982 26.4531C589.982 26.1354 589.878 25.8698 589.669 25.6562C589.461 25.4427 589.161 25.3359 588.771 25.3359C588.38 25.3359 588.081 25.4427 587.872 25.6562C587.664 25.8698 587.56 26.1354 587.56 26.4531ZM591.958 37H593.997V25.0547H591.958V37ZM595.677 33.0312C595.677 34.2865 596.042 35.3021 596.771 36.0781C597.5 36.849 598.518 37.2344 599.826 37.2344C600.654 37.2344 601.362 37.0703 601.951 36.7422C602.544 36.4089 602.971 36.0104 603.232 35.5469L601.818 34.6016C601.609 34.8932 601.336 35.1484 600.997 35.3672C600.664 35.5859 600.266 35.6953 599.802 35.6953C599.104 35.6953 598.581 35.4557 598.232 34.9766C597.883 34.4974 597.708 33.875 597.708 33.1094V32.6875C597.708 31.9167 597.87 31.2917 598.193 30.8125C598.521 30.3333 599.005 30.0938 599.646 30.0938C600.188 30.0938 600.604 30.2656 600.896 30.6094C601.188 30.9531 601.333 31.375 601.333 31.875V32.0469H597.013V33.3906H603.349V32.6406C603.349 31.3802 603.021 30.388 602.365 29.6641C601.708 28.9401 600.797 28.5781 599.63 28.5781C598.464 28.5781 597.513 28.9661 596.779 29.7422C596.044 30.513 595.677 31.526 595.677 32.7812V33.0312ZM604.458 33.0312C604.458 34.2396 604.771 35.2292 605.396 36C606.026 36.7708 606.883 37.1562 607.966 37.1562C608.503 37.1562 608.974 37.0469 609.38 36.8281C609.792 36.6042 610.089 36.3307 610.271 36.0078H610.31L610.365 37H612.271V25.0547H610.247V29.6953C610.029 29.3828 609.727 29.1328 609.341 28.9453C608.956 28.7526 608.497 28.6562 607.966 28.6562C606.914 28.6562 606.065 29.0417 605.419 29.8125C604.779 30.5833 604.458 31.5729 604.458 32.7812V33.0312ZM606.529 33.1016V32.7109C606.529 31.987 606.688 31.3906 607.005 30.9219C607.328 30.4531 607.81 30.2188 608.451 30.2188C608.904 30.2188 609.279 30.3385 609.576 30.5781C609.878 30.8125 610.099 31.0911 610.24 31.4141V34.3984C610.099 34.7161 609.875 34.9948 609.568 35.2344C609.26 35.474 608.888 35.5938 608.451 35.5938C607.805 35.5938 607.323 35.362 607.005 34.8984C606.688 34.4297 606.529 33.8307 606.529 33.1016Z" fill="#202223"/>
<g id="Frame 300_5">
<path id="242_3" d="M523.3 88H527.586V57.792H525.433L515.876 61.2373V65.0312L523.3 62.2627V88ZM536.671 78.5049C536.671 81.6631 537.471 84.1172 539.071 85.8672C540.67 87.6172 542.912 88.4922 545.797 88.4922C548.627 88.5059 550.856 87.6377 552.483 85.8877C554.123 84.124 554.944 81.6631 554.944 78.5049V67.6357C554.944 64.4775 554.137 62.0234 552.524 60.2734C550.91 58.5234 548.668 57.6484 545.797 57.6484C542.926 57.6484 540.684 58.5303 539.071 60.2939C537.471 62.0576 536.671 64.5049 536.671 67.6357V78.5049ZM540.978 79.0176V67.1641C540.978 65.2363 541.374 63.7256 542.167 62.6318C542.96 61.5381 544.17 60.9912 545.797 60.9912C547.424 60.9912 548.634 61.5381 549.427 62.6318C550.234 63.7256 550.637 65.2363 550.637 67.1641V79.0176C550.637 80.9316 550.234 82.4355 549.427 83.5293C548.634 84.623 547.424 85.1699 545.797 85.1699C544.17 85.1699 542.96 84.623 542.167 83.5293C541.374 82.4355 540.978 80.9316 540.978 79.0176Z" fill="#202223"/>
<g id="Frame 300_6">
<g id="arrow-up_minor_2">
<path id="Primary fill_5" fill-rule="evenodd" clip-rule="evenodd" d="M588.333 81V69.414L591.626 72.707C592.017 73.098 592.649 73.098 593.04 72.707C593.431 72.316 593.431 71.684 593.04 71.293L588.04 66.293C587.649 65.902 587.017 65.902 586.626 66.293L581.626 71.293C581.431 71.488 581.333 71.744 581.333 72C581.333 72.256 581.431 72.512 581.626 72.707C582.017 73.098 582.649 73.098 583.04 72.707L586.333 69.414V81C586.333 81.553 586.78 82 587.333 82C587.886 82 588.333 81.553 588.333 81Z" fill="#D72C0D"/>
</g>
<path id="30%_3" d="M606.47 81H608.238V66.5859H607.906L602.906 68.4609V70.1699L606.47 68.7051V81ZM613.326 76.5469C613.326 77.9857 613.716 79.1348 614.497 79.9941C615.285 80.847 616.376 81.2767 617.769 81.2832C619.149 81.2832 620.233 80.8535 621.021 79.9941C621.815 79.1348 622.212 77.9857 622.212 76.5469V71.2344C622.212 69.7956 621.815 68.6465 621.021 67.7871C620.233 66.9277 619.149 66.498 617.769 66.498C616.376 66.498 615.285 66.9277 614.497 67.7871C613.716 68.6465 613.326 69.7956 613.326 71.2344V76.5469ZM615.103 76.6445V71.1367C615.103 70.1992 615.321 69.4375 615.757 68.8516C616.193 68.2591 616.864 67.9629 617.769 67.9629C618.667 67.9629 619.335 68.2591 619.771 68.8516C620.207 69.4375 620.425 70.1992 620.425 71.1367V76.6445C620.425 77.582 620.207 78.347 619.771 78.9395C619.335 79.5254 618.667 79.8184 617.769 79.8184C616.864 79.8184 616.193 79.5254 615.757 78.9395C615.321 78.347 615.103 77.582 615.103 76.6445ZM624.283 76.5469C624.283 77.9857 624.673 79.1348 625.454 79.9941C626.242 80.847 627.333 81.2767 628.726 81.2832C630.106 81.2832 631.19 80.8535 631.978 79.9941C632.772 79.1348 633.169 77.9857 633.169 76.5469V71.2344C633.169 69.7956 632.772 68.6465 631.978 67.7871C631.19 66.9277 630.106 66.498 628.726 66.498C627.333 66.498 626.242 66.9277 625.454 67.7871C624.673 68.6465 624.283 69.7956 624.283 71.2344V76.5469ZM626.06 76.6445V71.1367C626.06 70.1992 626.278 69.4375 626.714 68.8516C627.15 68.2591 627.821 67.9629 628.726 67.9629C629.624 67.9629 630.292 68.2591 630.728 68.8516C631.164 69.4375 631.382 70.1992 631.382 71.1367V76.6445C631.382 77.582 631.164 78.347 630.728 78.9395C630.292 79.5254 629.624 79.8184 628.726 79.8184C627.821 79.8184 627.15 79.5254 626.714 78.9395C626.278 78.347 626.06 77.582 626.06 76.6445ZM634.859 71.0098C634.859 72.0319 635.119 72.8522 635.64 73.4707C636.161 74.0827 636.923 74.3887 637.925 74.3887C638.934 74.3887 639.699 74.0827 640.22 73.4707C640.747 72.8522 641.011 72.0319 641.011 71.0098V69.7988C641.011 68.7767 640.747 67.9596 640.22 67.3477C639.699 66.7292 638.934 66.4199 637.925 66.4199C636.923 66.4199 636.161 66.7259 635.64 67.3379C635.119 67.9499 634.859 68.7702 634.859 69.7988V71.0098ZM636.382 71.0098V69.7988C636.382 69.2129 636.496 68.7344 636.724 68.3633C636.958 67.9922 637.359 67.8066 637.925 67.8066C638.498 67.8066 638.898 67.9922 639.126 68.3633C639.361 68.7344 639.478 69.2129 639.478 69.7988V71.0098C639.478 71.5957 639.361 72.0742 639.126 72.4453C638.898 72.8164 638.498 73.002 637.925 73.002C637.359 73.002 636.958 72.8164 636.724 72.4453C636.496 72.0742 636.382 71.5957 636.382 71.0098ZM647.984 67.1133L646.802 66.3125L637.847 80.6191L639.009 81.4297L647.984 67.1133ZM644.81 77.8262C644.81 78.8483 645.07 79.6686 645.591 80.2871C646.112 80.8991 646.874 81.2051 647.876 81.2051C648.885 81.2051 649.65 80.8991 650.171 80.2871C650.699 79.6686 650.962 78.8483 650.962 77.8262V76.6152C650.962 75.5931 650.699 74.776 650.171 74.1641C649.65 73.5456 648.885 73.2363 647.876 73.2363C646.874 73.2363 646.112 73.5423 645.591 74.1543C645.07 74.7663 644.81 75.5866 644.81 76.6152V77.8262ZM646.333 77.8262V76.6152C646.333 76.0293 646.447 75.5508 646.675 75.1797C646.91 74.8086 647.31 74.623 647.876 74.623C648.449 74.623 648.85 74.8086 649.078 75.1797C649.312 75.5508 649.429 76.0293 649.429 76.6152V77.8262C649.429 78.4121 649.312 78.8906 649.078 79.2617C648.85 79.6328 648.449 79.8184 647.876 79.8184C647.31 79.8184 646.91 79.6328 646.675 79.2617C646.447 78.8906 646.333 78.4121 646.333 77.8262Z" fill="#D72C0D"/>
<path id="(320)_3" d="M660.872 81.9805V80.75C660.307 80.4036 659.772 79.8066 659.266 78.959C658.765 78.1068 658.514 76.9629 658.514 75.5273V75.3633C658.514 73.8639 658.765 72.7064 659.266 71.8906C659.772 71.0703 660.307 70.487 660.872 70.1406V68.9102C659.943 69.3477 659.095 70.0951 658.329 71.1523C657.564 72.2051 657.181 73.6247 657.181 75.4111V75.4795C657.181 77.1885 657.564 78.5898 658.329 79.6836C659.095 80.7773 659.943 81.543 660.872 81.9805ZM661.665 76.4023C661.665 77.2227 661.957 77.8949 662.54 78.4189C663.124 78.943 663.921 79.2051 664.933 79.2051C665.89 79.2051 666.681 78.943 667.305 78.4189C667.929 77.8949 668.242 77.1748 668.242 76.2588C668.242 75.6253 668.068 75.0921 667.722 74.6592C667.376 74.2262 666.915 73.9368 666.341 73.791V73.7637C666.87 73.5358 667.259 73.2122 667.51 72.793C667.761 72.3737 667.886 71.9362 667.886 71.4805C667.886 70.7057 667.61 70.0723 667.059 69.5801C666.508 69.0879 665.799 68.8418 664.933 68.8418C664.04 68.8418 663.317 69.0993 662.766 69.6143C662.215 70.1292 661.939 70.7513 661.939 71.4805V71.5488H663.21V71.4805C663.21 70.9792 663.365 70.5941 663.675 70.3252C663.985 70.0563 664.404 69.9219 664.933 69.9219C665.434 69.9219 665.833 70.0563 666.129 70.3252C666.425 70.5941 666.574 71.002 666.574 71.5488C666.574 72.0957 666.403 72.5218 666.061 72.8271C665.719 73.1325 665.234 73.2852 664.605 73.2852H663.887V74.3379H664.673C665.357 74.3379 665.901 74.4997 666.307 74.8232C666.713 75.1468 666.915 75.6276 666.915 76.2656C666.915 76.9036 666.735 77.373 666.375 77.6738C666.015 77.9746 665.535 78.125 664.933 78.125C664.331 78.125 663.848 77.9746 663.484 77.6738C663.119 77.373 662.937 76.9492 662.937 76.4023V76.334H661.665V76.4023ZM669.773 79H676.335V77.8652H671.4L674.182 74.9326C674.706 74.3812 675.15 73.8411 675.515 73.3125C675.88 72.7839 676.062 72.196 676.062 71.5488C676.062 70.8197 675.782 70.1862 675.221 69.6484C674.665 69.1107 673.931 68.8418 673.02 68.8418C672.099 68.8418 671.327 69.1335 670.703 69.7168C670.083 70.3001 669.773 71.0475 669.773 71.959V72.0273H671.072V71.959C671.072 71.321 671.259 70.8219 671.632 70.4619C672.01 70.1019 672.473 69.9219 673.02 69.9219C673.567 69.9219 673.993 70.0905 674.298 70.4277C674.608 70.765 674.763 71.1615 674.763 71.6172C674.763 72.0729 674.642 72.4945 674.401 72.8818C674.159 73.2692 673.801 73.7135 673.328 74.2148L669.773 78.043V79ZM677.675 75.8555C677.675 76.8581 677.958 77.667 678.523 78.2822C679.088 78.8975 679.872 79.2051 680.874 79.2051C681.868 79.2051 682.649 78.8975 683.219 78.2822C683.789 77.667 684.074 76.8581 684.074 75.8555V72.1914C684.074 71.1888 683.789 70.3799 683.219 69.7646C682.649 69.1494 681.868 68.8418 680.874 68.8418C679.872 68.8418 679.088 69.1494 678.523 69.7646C677.958 70.3799 677.675 71.1888 677.675 72.1914V75.8555ZM679.001 75.9238V72.123C679.001 71.485 679.154 70.9587 679.459 70.5439C679.765 70.1292 680.236 69.9219 680.874 69.9219C681.512 69.9219 681.984 70.1292 682.289 70.5439C682.595 70.9587 682.747 71.485 682.747 72.123V75.9238C682.747 76.5618 682.595 77.0882 682.289 77.5029C681.984 77.9176 681.512 78.125 680.874 78.125C680.236 78.125 679.765 77.9176 679.459 77.5029C679.154 77.0882 679.001 76.5618 679.001 75.9238ZM685.072 81.9805C686.001 81.543 686.849 80.7773 687.615 79.6836C688.38 78.5898 688.763 77.1885 688.763 75.4795V75.4111C688.763 73.6247 688.38 72.2051 687.615 71.1523C686.849 70.0951 686.001 69.3477 685.072 68.9102V70.1406C685.637 70.487 686.17 71.0703 686.671 71.8906C687.177 72.7064 687.43 73.8639 687.43 75.3633V75.5273C687.43 76.9629 687.177 78.1068 686.671 78.959C686.17 79.8066 685.637 80.4036 685.072 80.75V81.9805Z" fill="#6D7175"/>
</g>
</g>
<g id="Frame 304">
<path id="Reasons" d="M593.995 119H595.308V114.939H597.236C598.302 114.939 599.125 114.666 599.703 114.119C600.282 113.572 600.572 112.857 600.572 111.973C600.572 111.089 600.282 110.38 599.703 109.847C599.125 109.313 598.302 109.047 597.236 109.047H593.995V119ZM595.308 113.873V110.113H597.236C597.992 110.113 598.519 110.291 598.815 110.646C599.111 111.002 599.259 111.444 599.259 111.973C599.259 112.501 599.111 112.95 598.815 113.319C598.519 113.688 597.992 113.873 597.236 113.873H595.308ZM599.642 119H601.105L598.507 114.208L597.208 114.406L599.642 119ZM601.959 115.514C601.959 116.598 602.256 117.485 602.848 118.173C603.445 118.861 604.302 119.205 605.418 119.205C606.102 119.205 606.681 119.057 607.155 118.761C607.633 118.465 607.986 118.146 608.214 117.804L607.394 117.154C607.189 117.428 606.922 117.665 606.594 117.865C606.266 118.066 605.874 118.166 605.418 118.166C604.68 118.166 604.135 117.911 603.785 117.4C603.434 116.885 603.258 116.257 603.258 115.514V115.295C603.258 114.552 603.425 113.925 603.757 113.415C604.09 112.9 604.593 112.643 605.268 112.643C605.824 112.643 606.25 112.825 606.546 113.189C606.842 113.554 606.991 113.996 606.991 114.516V114.68H602.739V115.691H608.269V115.172C608.269 114.078 608.005 113.21 607.476 112.567C606.947 111.925 606.193 111.604 605.213 111.604C604.233 111.604 603.445 111.948 602.848 112.636C602.256 113.324 601.959 114.21 601.959 115.295V115.514ZM609.431 116.881C609.431 117.61 609.67 118.168 610.149 118.556C610.627 118.943 611.208 119.137 611.892 119.137C612.484 119.137 612.967 119.023 613.341 118.795C613.719 118.567 613.993 118.305 614.161 118.009C614.175 118.191 614.207 118.373 614.257 118.556C614.312 118.738 614.371 118.886 614.435 119H615.665V118.891C615.583 118.69 615.52 118.46 615.474 118.2C615.428 117.936 615.406 117.656 615.406 117.359V114.078C615.406 113.258 615.166 112.64 614.688 112.226C614.214 111.811 613.544 111.604 612.678 111.604C611.812 111.604 611.124 111.818 610.614 112.246C610.108 112.67 609.855 113.167 609.855 113.736V113.771H611.12V113.736C611.12 113.44 611.236 113.18 611.468 112.957C611.705 112.729 612.097 112.615 612.644 112.615C613.191 112.615 613.576 112.752 613.799 113.025C614.023 113.294 614.134 113.645 614.134 114.078V114.57H612.507C611.614 114.57 610.878 114.773 610.299 115.179C609.72 115.584 609.431 116.152 609.431 116.881ZM610.703 116.812C610.703 116.402 610.867 116.076 611.195 115.835C611.523 115.593 612.006 115.473 612.644 115.473H614.134V116.505C614.134 116.892 613.931 117.259 613.526 117.605C613.12 117.952 612.667 118.125 612.165 118.125C611.664 118.125 611.295 118.009 611.058 117.776C610.821 117.544 610.703 117.223 610.703 116.812ZM616.923 116.881V116.915C616.923 117.608 617.174 118.164 617.675 118.583C618.176 118.998 618.906 119.205 619.863 119.205C620.82 119.205 621.537 119 622.016 118.59C622.495 118.18 622.734 117.656 622.734 117.018C622.734 116.38 622.522 115.89 622.098 115.548C621.679 115.206 621.082 114.944 620.307 114.762C619.532 114.579 619.013 114.409 618.748 114.249C618.484 114.09 618.352 113.873 618.352 113.6C618.352 113.326 618.466 113.098 618.694 112.916C618.926 112.734 619.293 112.643 619.794 112.643C620.296 112.643 620.665 112.741 620.902 112.937C621.143 113.132 621.264 113.401 621.264 113.743V113.805H622.529V113.771C622.529 113.105 622.278 112.579 621.777 112.191C621.275 111.799 620.615 111.604 619.794 111.604C618.974 111.604 618.318 111.799 617.826 112.191C617.338 112.583 617.094 113.076 617.094 113.668C617.094 114.26 617.322 114.723 617.778 115.056C618.233 115.384 618.849 115.639 619.623 115.821C620.398 116.004 620.902 116.181 621.134 116.354C621.367 116.523 621.483 116.767 621.483 117.086C621.483 117.405 621.337 117.665 621.045 117.865C620.758 118.066 620.364 118.166 619.863 118.166C619.361 118.166 618.958 118.061 618.653 117.852C618.347 117.642 618.195 117.33 618.195 116.915V116.881H616.923ZM623.862 115.514C623.862 116.598 624.169 117.485 624.785 118.173C625.4 118.861 626.222 119.205 627.252 119.205C628.282 119.205 629.105 118.861 629.72 118.173C630.335 117.485 630.643 116.598 630.643 115.514V115.295C630.643 114.21 630.335 113.324 629.72 112.636C629.105 111.948 628.282 111.604 627.252 111.604C626.222 111.604 625.4 111.948 624.785 112.636C624.169 113.324 623.862 114.21 623.862 115.295V115.514ZM625.161 115.295C625.161 114.552 625.336 113.925 625.687 113.415C626.038 112.9 626.56 112.643 627.252 112.643C627.945 112.643 628.467 112.9 628.818 113.415C629.169 113.925 629.344 114.552 629.344 115.295V115.514C629.344 116.257 629.169 116.885 628.818 117.4C628.467 117.911 627.945 118.166 627.252 118.166C626.56 118.166 626.038 117.911 625.687 117.4C625.336 116.885 625.161 116.257 625.161 115.514V115.295ZM632.236 119H633.507V113.914C633.68 113.568 633.922 113.285 634.232 113.066C634.542 112.848 634.899 112.738 635.305 112.738C635.779 112.738 636.144 112.864 636.399 113.114C636.659 113.36 636.788 113.771 636.788 114.345V119H638.06V114.358C638.06 113.392 637.843 112.704 637.411 112.294C636.982 111.879 636.406 111.672 635.681 111.672C635.225 111.672 634.808 111.768 634.43 111.959C634.056 112.146 633.74 112.403 633.48 112.731H633.439L633.384 111.809H632.236V119ZM639.55 116.881V116.915C639.55 117.608 639.801 118.164 640.302 118.583C640.803 118.998 641.533 119.205 642.49 119.205C643.447 119.205 644.164 119 644.643 118.59C645.121 118.18 645.361 117.656 645.361 117.018C645.361 116.38 645.149 115.89 644.725 115.548C644.306 115.206 643.709 114.944 642.934 114.762C642.159 114.579 641.64 114.409 641.375 114.249C641.111 114.09 640.979 113.873 640.979 113.6C640.979 113.326 641.093 113.098 641.321 112.916C641.553 112.734 641.92 112.643 642.421 112.643C642.923 112.643 643.292 112.741 643.529 112.937C643.77 113.132 643.891 113.401 643.891 113.743V113.805H645.156V113.771C645.156 113.105 644.905 112.579 644.404 112.191C643.902 111.799 643.242 111.604 642.421 111.604C641.601 111.604 640.945 111.799 640.453 112.191C639.965 112.583 639.721 113.076 639.721 113.668C639.721 114.26 639.949 114.723 640.405 115.056C640.86 115.384 641.476 115.639 642.25 115.821C643.025 116.004 643.529 116.181 643.761 116.354C643.994 116.523 644.11 116.767 644.11 117.086C644.11 117.405 643.964 117.665 643.672 117.865C643.385 118.066 642.991 118.166 642.49 118.166C641.988 118.166 641.585 118.061 641.28 117.852C640.974 117.642 640.822 117.33 640.822 116.915V116.881H639.55Z" fill="#2C6ECB"/>
</g>
</g>
<g id="info_minor_3">
<path id="Primary fill_6" fill-rule="evenodd" clip-rule="evenodd" d="M708.333 32C708.333 27.582 704.751 24 700.333 24C695.915 24 692.333 27.582 692.333 32C692.333 36.418 695.915 40 700.333 40C704.751 40 708.333 36.418 708.333 32ZM699.333 35C699.333 35.5523 699.781 36 700.333 36C700.886 36 701.333 35.5523 701.333 35V33C701.333 32.4477 700.886 32 700.333 32C699.781 32 699.333 32.4477 699.333 33V35ZM699.333 29C699.333 29.5523 699.781 30 700.333 30C700.886 30 701.333 29.5523 701.333 29C701.333 28.4477 700.886 28 700.333 28C699.781 28 699.333 28.4477 699.333 29Z" fill="#8C9196"/>
</g>
</g>
</g>
<defs>
<filter id="filter0_dd_319_7821" x="-1" y="-1" width="231" height="144" filterUnits="userSpaceOnUse" color-interpolation-filters="sRGB">
<feFlood flood-opacity="0" result="BackgroundImageFix"/>
<feColorMatrix in="SourceAlpha" type="matrix" values="0 0 0 0 0 0 0 0 0 0 0 0 0 0 0 0 0 0 127 0" result="hardAlpha"/>
<feOffset/>
<feGaussianBlur stdDeviation="0.5"/>
<feColorMatrix type="matrix" values="0 0 0 0 0 0 0 0 0 0 0 0 0 0 0 0 0 0 0.25 0"/>
<feBlend mode="normal" in2="BackgroundImageFix" result="effect1_dropShadow_319_7821"/>
<feColorMatrix in="SourceAlpha" type="matrix" values="0 0 0 0 0 0 0 0 0 0 0 0 0 0 0 0 0 0 127 0" result="hardAlpha"/>
<feOffset dy="2"/>
<feGaussianBlur stdDeviation="0.5"/>
<feColorMatrix type="matrix" values="0 0 0 0 0 0 0 0 0 0 0 0 0 0 0 0 0 0 0.05 0"/>
<feBlend mode="normal" in2="effect1_dropShadow_319_7821" result="effect2_dropShadow_319_7821"/>
<feBlend mode="normal" in="SourceGraphic" in2="effect2_dropShadow_319_7821" result="shape"/>
</filter>
<filter id="filter1_dd_319_7821" x="247.667" y="-1" width="231" height="144" filterUnits="userSpaceOnUse" color-interpolation-filters="sRGB">
<feFlood flood-opacity="0" result="BackgroundImageFix"/>
<feColorMatrix in="SourceAlpha" type="matrix" values="0 0 0 0 0 0 0 0 0 0 0 0 0 0 0 0 0 0 127 0" result="hardAlpha"/>
<feOffset/>
<feGaussianBlur stdDeviation="0.5"/>
<feColorMatrix type="matrix" values="0 0 0 0 0 0 0 0 0 0 0 0 0 0 0 0 0 0 0.25 0"/>
<feBlend mode="normal" in2="BackgroundImageFix" result="effect1_dropShadow_319_7821"/>
<feColorMatrix in="SourceAlpha" type="matrix" values="0 0 0 0 0 0 0 0 0 0 0 0 0 0 0 0 0 0 127 0" result="hardAlpha"/>
<feOffset dy="2"/>
<feGaussianBlur stdDeviation="0.5"/>
<feColorMatrix type="matrix" values="0 0 0 0 0 0 0 0 0 0 0 0 0 0 0 0 0 0 0.05 0"/>
<feBlend mode="normal" in2="effect1_dropShadow_319_7821" result="effect2_dropShadow_319_7821"/>
<feBlend mode="normal" in="SourceGraphic" in2="effect2_dropShadow_319_7821" result="shape"/>
</filter>
<filter id="filter2_dd_319_7821" x="496.333" y="-1" width="231" height="144" filterUnits="userSpaceOnUse" color-interpolation-filters="sRGB">
<feFlood flood-opacity="0" result="BackgroundImageFix"/>
<feColorMatrix in="SourceAlpha" type="matrix" values="0 0 0 0 0 0 0 0 0 0 0 0 0 0 0 0 0 0 127 0" result="hardAlpha"/>
<feOffset/>
<feGaussianBlur stdDeviation="0.5"/>
<feColorMatrix type="matrix" values="0 0 0 0 0 0 0 0 0 0 0 0 0 0 0 0 0 0 0.25 0"/>
<feBlend mode="normal" in2="BackgroundImageFix" result="effect1_dropShadow_319_7821"/>
<feColorMatrix in="SourceAlpha" type="matrix" values="0 0 0 0 0 0 0 0 0 0 0 0 0 0 0 0 0 0 127 0" result="hardAlpha"/>
<feOffset dy="2"/>
<feGaussianBlur stdDeviation="0.5"/>
<feColorMatrix type="matrix" values="0 0 0 0 0 0 0 0 0 0 0 0 0 0 0 0 0 0 0.05 0"/>
<feBlend mode="normal" in2="effect1_dropShadow_319_7821" result="effect2_dropShadow_319_7821"/>
<feBlend mode="normal" in="SourceGraphic" in2="effect2_dropShadow_319_7821" result="shape"/>
</filter>
</defs>
</svg>
