<svg width="403" height="32" viewBox="0 0 403 32" fill="none" xmlns="http://www.w3.org/2000/svg">
<g id="Left">
<g id="Title + subtitle" clip-path="url(#clip0_5832_76181)">
<g id="Title">
<g id="Content" clip-path="url(#clip1_5832_76181)">
<path id="Title_2" d="M9.4043 19.6895H3.89648L2.74414 23H0.175781L5.54688 8.78125H7.76367L13.1445 23H10.5664L9.4043 19.6895ZM4.58984 17.6973H8.71094L6.65039 11.7988L4.58984 17.6973ZM18.877 21.3008C19.4694 21.3008 19.9609 21.1283 20.3516 20.7832C20.7422 20.4382 20.9505 20.0117 20.9766 19.5039H23.2129C23.1868 20.1615 22.9818 20.7767 22.5977 21.3496C22.2135 21.916 21.6927 22.3652 21.0352 22.6973C20.3776 23.0293 19.668 23.1953 18.9062 23.1953C17.4284 23.1953 16.2565 22.7168 15.3906 21.7598C14.5247 20.8027 14.0918 19.4811 14.0918 17.7949V17.5508C14.0918 15.9427 14.5215 14.6569 15.3809 13.6934C16.2402 12.7233 17.4121 12.2383 18.8965 12.2383C20.153 12.2383 21.1751 12.6061 21.9629 13.3418C22.7572 14.071 23.1738 15.0312 23.2129 16.2227H20.9766C20.9505 15.6172 20.7422 15.1191 20.3516 14.7285C19.9674 14.3379 19.4759 14.1426 18.877 14.1426C18.1087 14.1426 17.5163 14.4225 17.0996 14.9824C16.6829 15.5358 16.4714 16.3789 16.4648 17.5117V17.8926C16.4648 19.0384 16.6699 19.8945 17.0801 20.4609C17.4967 21.0208 18.0957 21.3008 18.877 21.3008ZM27.9785 9.86523V12.4336H29.8438V14.1914H27.9785V20.0898C27.9785 20.4935 28.0566 20.7865 28.2129 20.9688C28.3757 21.1445 28.6621 21.2324 29.0723 21.2324C29.3457 21.2324 29.6224 21.1999 29.9023 21.1348V22.9707C29.362 23.1204 28.8411 23.1953 28.3398 23.1953C26.5169 23.1953 25.6055 22.1895 25.6055 20.1777V14.1914H23.8672V12.4336H25.6055V9.86523H27.9785ZM34.1895 23H31.8164V12.4336H34.1895V23ZM31.6699 9.68945C31.6699 9.32487 31.7839 9.02214 32.0117 8.78125C32.2461 8.54036 32.5781 8.41992 33.0078 8.41992C33.4375 8.41992 33.7695 8.54036 34.0039 8.78125C34.2383 9.02214 34.3555 9.32487 34.3555 9.68945C34.3555 10.0475 34.2383 10.347 34.0039 10.5879C33.7695 10.8223 33.4375 10.9395 33.0078 10.9395C32.5781 10.9395 32.2461 10.8223 32.0117 10.5879C31.7839 10.347 31.6699 10.0475 31.6699 9.68945ZM40.5078 19.9922L42.7441 12.4336H45.1953L41.5332 23H39.4727L35.7812 12.4336H38.2422L40.5078 19.9922ZM49.209 23H46.8359V12.4336H49.209V23ZM46.6895 9.68945C46.6895 9.32487 46.8034 9.02214 47.0312 8.78125C47.2656 8.54036 47.5977 8.41992 48.0273 8.41992C48.457 8.41992 48.7891 8.54036 49.0234 8.78125C49.2578 9.02214 49.375 9.32487 49.375 9.68945C49.375 10.0475 49.2578 10.347 49.0234 10.5879C48.7891 10.8223 48.457 10.9395 48.0273 10.9395C47.5977 10.9395 47.2656 10.8223 47.0312 10.5879C46.8034 10.347 46.6895 10.0475 46.6895 9.68945ZM54.7754 9.86523V12.4336H56.6406V14.1914H54.7754V20.0898C54.7754 20.4935 54.8535 20.7865 55.0098 20.9688C55.1725 21.1445 55.459 21.2324 55.8691 21.2324C56.1426 21.2324 56.4193 21.1999 56.6992 21.1348V22.9707C56.1589 23.1204 55.638 23.1953 55.1367 23.1953C53.3138 23.1953 52.4023 22.1895 52.4023 20.1777V14.1914H50.6641V12.4336H52.4023V9.86523H54.7754ZM62.1582 19.6016L64.3066 12.4336H66.8359L62.6367 24.6016C61.9922 26.3789 60.8984 27.2676 59.3555 27.2676C59.0104 27.2676 58.6296 27.209 58.2129 27.0918V25.2559L58.6621 25.2852C59.2611 25.2852 59.7103 25.1745 60.0098 24.9531C60.3158 24.7383 60.5566 24.3737 60.7324 23.8594L61.0742 22.9512L57.3633 12.4336H59.9219L62.1582 19.6016Z" fill="#202223"/>
</g>
</g>
</g>
</g>
<defs>
<clipPath id="clip0_5832_76181">
<rect width="403" height="32" fill="white"/>
</clipPath>
<clipPath id="clip1_5832_76181">
<rect width="67" height="32" fill="white"/>
</clipPath>
</defs>
</svg>
